<svg version="1.0" xmlns="http://www.w3.org/2000/svg" width="400" height="121.333"
    viewBox="0 0 300 91">
    <path
        d="M25 7.05C1.6 17.8 1.8 49.6 25.35 60.6c6.95 3.2 28.25 3.6 31 .55 5.9-6.5.7-11.15-12.6-11.15-11.35 0-14.9-1.15-19.45-6.35-5.8-6.55-5-16.35 1.8-22.1 6.25-5.25 32.15-5.2 38.15.1 4.75 4.15 7.25 4.9 10.2 2.95C79.9 21.05 78 15.15 69.5 9.05L64.55 5.5l-17.5-.25C31.1 5 29.1 5.15 25 7.05z" />
    <path
        d="M32.25 29.2c-6.5 7-.95 11.8 13.55 11.8 15.4 0 21.65 4.45 21.65 15.4C67.45 68.85 61.2 73 42.6 73H29.05l-6.9-6.5C12.95 57.85 7 57.9 7 66.6c0 5.35 11.65 16.65 19.5 18.95 9.35 2.7 30.4 1.7 37-1.75 22.75-12 22.55-43.7-.35-54.1-7.6-3.5-27.8-3.8-30.9-.5zM98.5 27.9c-9.15 4-8.1 12.4 2.25 17.4 11.8 5.7 7.15 15.4-5.15 10.75-2.1-.8-2.75-.65-3.6.95-2.65 4.95 13.25 5.9 18.1 1.1 5.8-5.85 3.45-12.25-6.15-16.95-9.1-4.45-7.8-9.8 2.2-8.85 5.75.5 8.45-1.1 6.05-3.5-1.3-1.3-11.35-1.95-13.7-.9zM210 43.85V61h5.85c22.8 0 22.95-31.65.15-33.75l-6-.55v17.15zm14.7-8.4c6.6 7.65 2.35 20.45-6.95 20.9l-3.25.15-.3-12.4-.25-12.35 4.25.55c2.9.4 5 1.4 6.5 3.15zM195.65 30.05c-1.45 1.15-2.65 2.95-2.65 4 0 1.1-.45 1.95-1 1.95s-1 .9-1 2 .65 2 1.5 2c1.2 0 1.5 1.65 1.5 8.85 0 10 1.2 12.15 6.85 12.15 3.85 0 4.65-3.65.9-4.2-3.75-.5-4.05-16.8-.3-16.8 1.9 0 2.55-.5 2.55-2 0-1.55-.65-2-3-2-2.95 0-3-.1-2.4-4 .75-4.6.6-4.7-2.95-1.95zM261.25 30.2C260 31.55 259 33.4 259 34.3c0 .95-.65 1.7-1.5 1.7s-1.5.9-1.5 2c0 1.35.65 2 2 2 1.85 0 2 .65 2 8.75.05 10.75 2.1 13.85 8.3 12.5 2.4-.55 1.75-3.6-.8-4.1-3-.55-3.45-1.95-3.5-9.9V40h3c2.35 0 3-.45 3-2s-.65-2-2.95-2c-2.7 0-2.95-.3-3.25-4.1l-.3-4.1-2.25 2.4zM125 35.7c-.8.3-2.05 1.25-2.75 2.1-1.15 1.45-1.25 1.4-1.25-.1 0-1.05-.8-1.7-2-1.7-1.9 0-2 .65-2 12.5V61h2.5c2.5 0 2.5-.05 2.5-9.45 0-8.6.2-9.55 2.2-11 5.05-3.55 6.8-.7 6.8 11 0 9.4 0 9.45 2.5 9.45s2.5-.05 2.5-9.45C136 42 137.05 39 140.4 39c3.35 0 4.6 3.5 4.6 12.85V61h5.2l-.35-10.6c-.45-13.9-5.7-19.4-12.95-13.5-2.3 1.85-2.4 1.85-4.75 0-2.4-1.9-4.3-2.2-7.15-1.2zM156.75 35.7c-2.7.45-3.45 1.8-2 3.8.4.55 3.25 1 6.25 1 7.7 0 8.95 3.9 1.5 4.75-6.1.7-9.5 3.8-9.5 8.75 0 6.35 7.15 9.4 12.8 5.45 2-1.4 2.2-1.4 2.2 0 0 .9.85 1.55 2 1.55 1.85 0 2-.65 2-10.05 0-14.7-2.5-17.15-15.25-15.25zM167 51.45c0 3.2-2.5 5.55-5.95 5.55-3.2 0-4.55-2.2-3.05-5 2.05-3.85 9-4.3 9-.55zM187 35.75c-.8.3-2.6 1.45-3.9 2.65l-2.4 2.1.55-2.25c.45-1.8.15-2.25-1.6-2.25-2.1 0-2.15.25-1.85 12.5l.3 12.5h2.45c2.4 0 2.45-.2 2.45-7.9 0-9.5.4-10.75 4.1-12.65 3.95-2.05 3.85-6-.1-4.7z" />
    <path
        d="M238.25 35.65c-2.35.5-2.65 1.15-1.7 3.65.45 1.1 1.4 1.3 4.05.7 4.15-.95 7.05-.35 7.85 1.7.85 2.25-.25 3.3-3.55 3.3-6.9 0-11.55 4.75-10.45 10.6.95 5.1 9.4 7.7 12.55 3.9.7-.85 1.65-1.5 2.1-1.5.5 0 .9.65.9 1.5 0 .8.8 1.5 1.75 1.5 2.65 0 2-20.6-.7-23.35-1.85-1.9-8.45-2.95-12.8-2zM249 51.35c0 5.45-9.1 8-9.85 2.7C238.7 51 241.3 49 245.7 49c2.8 0 3.3.35 3.3 2.35zM276.25 35.7c-5.15 1-2.65 4.2 3.5 4.5 6.65.35 9.85 4.8 3.45 4.8-7.25 0-11.2 3.1-11.2 8.8 0 6.9 7.4 10 12.5 5.2l2.5-2.35v2.2c0 1.5.6 2.15 2 2.15 2.25 0 3.1-18.1 1-21.95-1.65-3.15-7.5-4.55-13.75-3.35zM286 50.55c0 4.4-1.75 6.45-5.45 6.45-5.7 0-5.15-7.2.7-8.3 4.4-.85 4.75-.7 4.75 1.85z" />
</svg>