<svg version="1.1" id="Layer_1" xmlns="http://www.w3.org/2000/svg"
	xmlns:xlink="http://www.w3.org/1999/xlink" x="0px" y="0px"
	width="100%" viewBox="0 0 602 182" enable-background="new 0 0 602 182" xml:space="preserve">
<path fill="#FEFEFE" opacity="1.000000" stroke="none" 
	d="
M388.000000,183.000000 
	C258.666656,183.000000 129.833328,183.000000 1.000000,183.000000 
	C1.000000,122.333336 1.000000,61.666668 1.000000,1.000000 
	C201.666672,1.000000 402.333344,1.000000 603.000000,1.000000 
	C603.000000,61.666668 603.000000,122.333336 603.000000,183.000000 
	C531.500000,183.000000 460.000000,183.000000 388.000000,183.000000 
M475.948090,96.947411 
	C475.948090,96.947411 475.930634,96.863556 475.409912,97.021957 
	C475.222260,97.321266 475.034576,97.620583 474.932159,97.934746 
	C474.932159,97.934746 474.917816,97.849388 474.391663,98.015327 
	C474.235474,98.334015 474.079315,98.652702 473.995056,98.986572 
	C473.995056,98.986572 473.952637,98.926529 473.351990,99.259682 
	C472.867554,100.510597 472.383118,101.761513 471.722321,103.188919 
	C471.722321,103.188919 471.810791,103.422211 471.206055,104.094376 
	C471.784271,108.085426 472.362488,112.076469 472.999359,116.009979 
	C472.999359,116.009979 472.923004,116.040199 472.941559,116.647057 
	C473.293854,117.101631 473.646149,117.556198 474.001221,117.999733 
	C474.001221,117.999733 473.990631,117.998833 474.088409,118.534477 
	C474.377167,118.736664 474.665955,118.938843 475.104553,119.572411 
	C475.291840,119.838013 475.546692,119.991058 476.056458,120.554329 
	C476.378876,120.683563 476.701324,120.812805 477.035858,121.004326 
	C477.035858,121.004326 477.076508,120.955612 477.565582,121.488113 
	C483.488373,124.495155 489.356110,124.925804 495.010681,121.052299 
	C495.010681,121.052299 495.104889,121.151253 495.789551,121.053886 
	C497.848511,119.716209 499.907501,118.378532 502.003784,117.007614 
	C502.003784,117.007614 501.957489,117.022316 501.928711,117.888367 
	C502.027008,119.471313 502.125336,121.054253 502.221832,122.608337 
	C504.799286,122.608337 506.865601,122.608337 508.998718,122.608337 
	C508.998718,114.854370 508.998718,107.434433 509.156708,99.090683 
	C509.055481,94.399574 508.954254,89.708466 508.983582,84.363762 
	C508.659515,83.566902 508.335480,82.770050 508.025940,81.251762 
	C505.631714,78.668388 503.710266,74.931190 500.753876,73.719788 
	C492.175049,70.204567 483.375610,71.637154 474.309967,74.376106 
	C475.431244,77.316765 476.346832,79.718010 477.091003,81.669632 
	C481.932007,81.048874 486.157806,80.151634 490.404144,80.040825 
	C497.887024,79.845558 500.099365,82.381165 499.395996,90.006218 
	C499.395996,90.006218 498.987061,90.198807 498.498901,90.085297 
	C498.342255,90.143333 498.185577,90.201363 497.248291,90.151840 
	C496.759796,90.317619 496.271301,90.483391 495.448669,90.471733 
	C495.155640,90.474373 494.962494,90.614738 494.989532,90.963020 
	C494.989532,90.963020 494.902344,90.854477 494.049011,90.739494 
	C490.327942,91.463051 486.606903,92.186607 482.998901,92.940262 
	C482.998901,92.940262 482.912689,92.861153 482.250854,92.970810 
	C481.124329,93.614090 479.997803,94.257370 478.950775,94.854439 
	C478.950775,94.854439 478.861908,94.830917 478.281372,94.908417 
	C477.851593,95.272270 477.421783,95.636124 477.001190,96.001221 
	C477.001190,96.001221 477.003937,95.992729 476.469330,96.075432 
	C476.267731,96.359848 476.066132,96.644257 475.948090,96.947411 
M550.000000,98.000000 
	C550.000000,98.000000 550.002014,98.006599 549.507385,98.329796 
	C549.278564,98.863754 549.049805,99.397720 548.910461,99.938271 
	C548.910461,99.938271 548.881470,99.853340 548.269409,100.206253 
	C547.775146,101.753960 547.280823,103.301666 546.878296,104.905273 
	C546.878296,104.905273 546.862061,104.799034 546.361328,105.001297 
	C546.282043,105.328865 546.202698,105.656441 545.981079,106.780312 
	C546.030884,107.854347 546.080627,108.928375 545.997437,110.724846 
	C546.980042,112.843506 547.962646,114.962166 548.992371,117.016937 
	C548.992371,117.016937 548.915100,117.035248 549.010559,117.584496 
	C549.301819,117.792793 549.593079,118.001091 549.881226,118.106445 
	C549.881226,118.106445 549.790405,118.155052 549.968262,118.774994 
	C550.942871,119.570358 551.917419,120.365723 552.964905,121.060463 
	C552.964905,121.060463 552.852295,121.112968 553.230652,121.747032 
	C562.578796,127.044800 569.680786,122.403336 576.481140,115.547043 
	C576.759094,118.536102 576.950073,120.590111 577.154907,122.793396 
	C579.639465,122.793396 581.754822,122.793396 584.559814,122.625626 
	C584.603088,121.723457 584.646423,120.821289 584.752686,118.995285 
	C584.567383,110.658920 584.382080,102.322563 584.388428,93.150902 
	C584.345276,91.162720 584.302063,89.174545 584.528259,86.891647 
	C584.423096,86.539543 584.317993,86.187431 584.202942,85.034096 
	C583.148193,82.337189 582.093384,79.640289 581.001038,76.999954 
	C581.001038,76.999954 581.057007,76.961258 580.826660,76.359467 
	C579.917908,75.856377 579.009216,75.353287 577.993652,74.956360 
	C577.993652,74.956360 578.129517,74.891602 577.734009,74.254066 
	C568.535583,70.344933 559.416748,71.964676 550.188660,74.029152 
	C550.661499,76.722397 551.024170,78.788048 551.425415,81.073395 
	C558.434326,81.073395 565.196838,81.073395 571.994812,81.000008 
	C571.994812,81.000008 571.929688,81.049225 572.195740,81.591202 
	C572.976379,82.193787 573.757019,82.796379 574.671143,83.453705 
	C574.671143,83.453705 574.565308,83.358238 574.800903,84.168015 
	C574.828186,86.099205 574.855469,88.030388 574.435364,90.027168 
	C574.435364,90.027168 574.011292,90.184158 573.176453,90.160332 
	C568.439575,91.099014 563.702637,92.037697 558.975159,92.997543 
	C558.975159,92.997543 558.994019,92.985413 558.283936,92.954544 
	C556.841797,93.626755 555.399658,94.298958 553.994751,95.003830 
	C553.994751,95.003830 553.982727,94.955956 553.419189,95.050133 
	C553.182861,95.335396 552.946533,95.620659 552.175659,95.960686 
	C551.780212,96.291885 551.384827,96.623085 550.461182,97.071648 
	C550.309204,97.381149 550.157288,97.690651 550.000000,98.000000 
M453.078033,118.105927 
	C453.078033,118.105927 453.132782,118.190285 453.776245,118.137604 
	C454.580231,117.478958 455.384216,116.820305 456.038910,116.079018 
	C456.038910,116.079018 456.154083,116.204956 456.794067,116.047630 
	C457.932098,114.751495 459.070129,113.455368 460.117981,112.107231 
	C460.117981,112.107231 460.128937,112.210747 460.644196,112.021370 
	C460.811829,111.705681 460.979462,111.389992 461.045807,111.045372 
	C461.045807,111.045372 461.106750,111.131294 461.697632,110.875778 
	C462.170074,109.942116 462.642487,109.008453 463.022339,108.009262 
	C463.022339,108.009262 463.084045,108.104439 463.655823,107.751389 
	C464.110138,106.507919 464.564453,105.264450 465.000000,104.002281 
	C465.000000,104.002281 465.021271,104.013626 465.548920,103.493767 
	C468.038208,96.268036 469.186279,88.943497 467.311554,81.203583 
	C467.311554,81.203583 467.196991,81.008011 467.211670,80.223053 
	C466.501984,78.114357 465.792297,76.005653 465.026886,73.993271 
	C465.026886,73.993271 465.115601,73.926109 465.067230,73.258041 
	C464.391846,72.154724 463.716492,71.051407 462.998383,69.965996 
	C462.998383,69.965996 463.041382,69.982903 462.946320,69.443283 
	C462.660156,69.237534 462.373993,69.031784 462.114960,68.886024 
	C462.114960,68.886024 462.149506,68.829254 462.028992,68.159630 
	C451.729095,54.170101 436.870758,55.870415 422.170502,56.202435 
	C422.170502,58.088062 422.170502,59.563332 422.001587,61.955833 
	C422.002258,78.535492 422.029694,95.115196 421.994385,111.694778 
	C421.970276,123.029915 421.931305,123.054520 433.477509,122.991158 
	C439.915680,122.955826 446.431885,123.184494 451.998657,119.002342 
	C451.998657,119.002342 451.993073,118.979439 452.529907,118.916382 
	C452.746063,118.648361 452.962250,118.380341 453.078033,118.105927 
M23.323938,39.976757 
	C23.234035,40.316051 23.144131,40.655342 22.799541,41.179096 
	C22.799541,41.179096 22.846464,41.490047 22.310305,41.817291 
	C22.207788,42.211571 22.105272,42.605846 21.636024,43.297531 
	C21.383104,43.530834 21.278681,43.818130 20.899233,44.750519 
	C20.063971,46.845280 19.228708,48.940044 18.103456,51.398483 
	C18.103456,51.398483 18.156427,51.860592 17.863342,52.486134 
	C17.242607,54.715855 16.333633,56.908894 16.044476,59.180817 
	C11.872437,91.960457 32.258556,116.448227 58.130817,124.845764 
	C73.784378,129.926544 90.131905,127.763779 106.182434,127.218155 
	C113.101814,126.982948 118.326233,119.721222 117.872948,113.327644 
	C117.380180,106.377213 111.552895,101.133720 103.972832,101.035835 
	C95.648216,100.928329 87.304031,100.641640 78.999695,101.057915 
	C66.733215,101.672806 56.757530,97.116051 48.108192,88.908112 
	C48.108192,88.908112 48.225262,88.839699 48.183712,88.110222 
	C46.159630,84.056969 44.135551,80.003723 42.151478,75.278816 
	C42.037785,74.847107 41.924091,74.415398 41.908653,73.496834 
	C41.908653,73.496834 41.722240,73.036469 41.829338,72.217896 
	C41.627148,71.145401 41.424953,70.072899 41.510765,68.362190 
	C41.449177,67.907738 41.387589,67.453278 41.690098,66.262283 
	C41.754913,65.174042 41.819733,64.085800 42.172852,62.327736 
	C42.544376,60.920700 42.915897,59.513660 43.810463,57.670158 
	C50.071945,43.972298 60.142750,36.413528 75.796555,36.927689 
	C87.615311,37.315887 99.458397,37.134563 111.287453,36.972378 
	C118.140724,36.878418 123.934700,39.039227 129.031052,43.568871 
	C131.755875,45.990715 134.625885,48.324814 137.710754,50.249031 
	C142.874619,53.470055 149.226578,52.569698 153.245911,48.442387 
	C157.393570,44.183323 158.313934,38.651115 154.751038,33.381348 
	C146.614014,21.346203 135.874222,12.064928 120.970879,11.041804 
	C103.889450,9.869151 86.670418,10.137399 69.531288,10.572457 
	C58.597851,10.849991 48.488415,14.614929 39.390667,21.964987 
	C39.152905,22.231604 38.915142,22.498222 38.820610,22.824461 
	C38.820610,22.824461 38.731075,22.697765 38.076584,22.877995 
	C34.543694,26.555803 31.010801,30.233612 27.162386,34.164169 
	C27.162386,34.164169 27.064493,34.556416 26.563694,34.902599 
	C25.627581,36.541775 24.691465,38.180946 23.863127,39.863415 
	C23.863127,39.863415 23.821968,39.754803 23.323938,39.976757 
M80.095917,55.689667 
	C78.096695,55.668610 76.093872,55.560055 74.098900,55.642231 
	C66.956635,55.936436 61.136837,61.528507 61.023449,68.132629 
	C60.899994,75.323051 67.233849,82.018906 74.520691,82.105110 
	C81.345657,82.185867 88.174095,81.973495 95.919807,82.067894 
	C99.250206,82.081268 102.582214,82.032913 105.910683,82.119980 
	C114.670776,82.349174 122.091103,85.811989 127.949265,92.178612 
	C136.561157,101.537956 139.075745,112.635468 134.809525,124.561317 
	C130.313858,137.128494 121.499298,145.338989 107.376884,147.416260 
	C107.226845,147.500687 107.076805,147.585129 106.029114,147.411926 
	C99.379532,147.514984 92.729942,147.618057 85.287346,147.442108 
	C78.811790,147.501038 72.336243,147.559982 65.268616,147.260590 
	C61.828545,145.723129 57.953552,144.751465 55.048309,142.518234 
	C50.461979,138.992767 46.542061,134.604095 42.310143,130.612518 
	C39.531914,127.992096 36.917618,125.126350 33.839920,122.912666 
	C29.802994,120.009033 25.190222,119.429199 20.682581,121.986458 
	C16.171526,124.545662 14.119493,128.878296 14.717994,133.757217 
	C15.141285,137.207855 16.402824,141.080063 18.579802,143.687225 
	C23.896206,150.054199 29.805492,155.956314 35.764492,161.748901 
	C43.304111,169.077957 52.643436,173.311554 62.983170,173.976501 
	C76.583420,174.851151 90.256783,174.878326 103.896111,174.802628 
	C147.645172,174.559830 176.676773,125.833176 156.220901,87.181374 
	C145.515778,66.953865 123.973740,54.061401 103.096718,55.724701 
	C95.726257,55.795368 88.355789,55.866039 80.095917,55.689667 
M383.749451,74.860664 
	C383.749451,76.603226 383.749451,78.345779 383.749451,80.054672 
	C386.231934,80.475395 387.984406,80.772400 389.547852,81.037369 
	C389.758179,81.488754 389.888824,81.639076 389.890106,81.790527 
	C389.967865,90.771088 389.918518,99.754517 390.131958,108.731705 
	C390.410706,120.457214 398.627167,125.985611 409.788086,122.081207 
	C409.788086,120.147415 409.788086,118.199516 409.788086,116.251610 
	C409.485687,116.586937 409.183289,116.922272 408.880890,117.257599 
	C406.066711,115.476143 401.346649,114.166977 400.767914,111.831581 
	C398.249695,101.669380 399.123260,91.219093 399.857117,80.952606 
	C403.065186,80.641632 405.540741,80.401665 408.659546,80.389778 
	C413.799896,79.185211 409.776398,75.734436 410.975342,73.230804 
	C407.909668,73.230804 405.447571,73.230804 402.146118,73.093826 
	C399.226379,73.392174 399.027710,71.578514 399.085297,69.348526 
	C399.179321,65.709335 399.110718,62.065952 399.110718,58.424339 
	C394.662201,61.895927 387.902679,62.805458 389.056519,70.715057 
	C389.009399,71.461639 388.962311,72.208214 388.128693,73.023018 
	C387.080017,73.081795 386.031311,73.140564 384.441620,73.152260 
	C384.277649,73.436020 384.113708,73.719780 383.749451,74.860664 
M192.227356,85.759071 
	C194.485260,87.077103 196.743149,88.395134 199.651520,90.059143 
	C203.085403,91.404068 206.519302,92.749001 210.377579,94.616829 
	C214.732788,96.799004 218.507965,99.508751 217.890656,105.120949 
	C217.358002,109.963303 212.675110,114.225212 206.594559,114.735199 
	C202.371048,115.089432 197.936356,114.791321 193.797745,113.874252 
	C186.830643,112.330429 186.898056,112.026169 184.347260,119.629608 
	C195.317841,123.915024 206.319290,125.867668 217.439041,120.512543 
	C224.506821,117.108788 227.823090,110.922470 227.910019,103.160721 
	C227.996521,95.436462 223.604568,90.441216 217.093887,87.222107 
	C213.565002,85.477303 209.705811,84.400551 205.615799,82.572098 
	C205.070297,82.403168 204.524811,82.234238 203.503647,81.618103 
	C202.046509,80.637383 200.589355,79.656662 198.884827,78.016212 
	C195.481979,71.893394 197.710709,66.118141 204.894104,65.234451 
	C211.081665,64.473267 217.506210,65.638634 224.760651,65.998581 
	C225.466232,64.790253 226.833344,62.449093 228.443985,59.690899 
	C217.753922,55.413082 207.548233,53.716084 197.250290,57.819519 
	C185.801453,62.381546 183.114655,77.098068 192.227356,85.759071 
M308.960022,116.065926 
	C310.662445,120.039780 313.643707,122.342712 317.885040,123.231483 
	C325.499603,124.827110 331.846771,122.622261 337.051147,116.598282 
	C339.164246,124.962944 338.992249,123.176888 345.727570,122.322937 
	C345.727570,110.196747 345.871185,98.058113 345.656830,85.925819 
	C345.571167,81.079071 343.824158,76.600281 339.013245,74.439606 
	C329.371979,70.109535 319.713043,71.978699 309.571350,74.279602 
	C310.688660,77.365120 311.556732,79.762344 312.398590,82.087158 
	C330.730988,77.945015 336.798218,80.064774 335.538910,90.391472 
	C333.035614,90.585876 330.428619,90.823631 327.816925,90.985168 
	C315.188080,91.766312 308.082397,97.997948 307.165497,109.721092 
	C307.727753,111.612953 308.289978,113.504814 308.960022,116.065926 
M247.643326,83.649872 
	C250.588364,79.900436 254.534180,78.865738 258.776550,80.479286 
	C263.139191,82.138565 263.821228,86.279465 263.967590,90.400276 
	C264.062012,93.059975 263.993683,95.725555 263.994110,98.388496 
	C263.995361,106.475883 263.994537,114.563271 263.994537,122.602875 
	C267.469269,122.602875 270.196625,122.602875 273.174103,122.602875 
	C273.174103,112.418915 273.129456,102.611481 273.209167,92.805054 
	C273.226532,90.669754 273.419434,88.461334 274.000793,86.420265 
	C275.318756,81.792885 278.792633,79.640404 283.878540,79.944008 
	C288.464355,80.217758 290.698669,83.008575 291.242920,87.237610 
	C291.665680,90.522614 291.847076,93.855949 291.880707,97.170395 
	C291.966431,105.610565 291.909241,114.052177 291.909241,122.689850 
	C295.238068,122.689850 297.955780,122.689850 301.007812,122.689850 
	C301.007812,111.774750 301.011414,101.156685 301.004364,90.538620 
	C301.003143,88.708405 301.114319,86.859795 300.902954,85.051308 
	C300.134644,78.476860 296.289673,73.787125 289.981506,72.335243 
	C282.310822,70.569748 275.640076,72.619080 270.612366,78.950249 
	C263.036194,69.306908 251.236343,69.431236 244.775009,78.071381 
	C244.428360,77.758812 244.081726,77.446243 244.180939,76.505157 
	C244.132812,76.002380 244.084686,75.499611 244.018448,74.144997 
	C241.685898,73.599869 239.353348,73.054749 236.166275,72.309914 
	C236.384201,77.270348 236.555130,81.161072 236.451614,85.808678 
	C236.543640,86.863174 236.635666,87.917679 236.410507,89.864792 
	C236.410507,100.780952 236.410507,111.697113 236.410507,122.643127 
	C239.907196,122.643127 242.786972,122.643127 245.716827,122.643127 
	C245.716827,112.511032 245.716827,102.744843 245.864914,92.117424 
	C245.903336,90.076248 245.941757,88.035072 246.440536,85.631714 
	C246.645645,85.094482 246.850754,84.557251 247.643326,83.649872 
M524.323181,117.922874 
	C528.720154,124.521370 534.914062,124.261337 541.740356,122.594833 
	C541.740356,120.368896 541.740356,118.311272 541.740356,116.286629 
	C534.168701,115.557236 531.683594,114.280334 531.402344,109.062767 
	C530.905334,99.842232 531.263184,90.575623 531.263184,80.877686 
	C535.446960,80.877686 539.040588,80.877686 542.746216,80.877686 
	C542.746216,78.176544 542.746216,75.943512 542.746216,73.069458 
	C538.756287,73.069458 535.049255,73.069458 530.886780,73.069458 
	C530.886780,67.713264 530.886780,62.988804 530.886780,57.712738 
	C523.347656,60.988979 519.590210,65.834137 520.997070,73.662445 
	C518.285645,73.929024 516.219788,74.132141 513.976746,74.352676 
	C514.088501,76.538239 514.178162,78.291176 514.278992,80.262199 
	C516.955811,80.388206 519.250122,80.496208 522.001221,80.625717 
	C522.001221,89.650940 521.829773,98.619461 522.092346,107.575256 
	C522.187012,110.805077 523.323792,114.004356 524.323181,117.922874 
M367.115814,113.457565 
	C367.110779,108.627647 367.087311,103.797653 367.104462,98.967819 
	C367.143036,88.103569 370.654755,83.261711 380.898621,79.963715 
	C380.898621,77.545670 380.898621,75.110672 380.898621,72.448524 
	C373.121735,71.626450 369.214203,76.780907 364.798767,82.659439 
	C364.798767,78.889870 364.798767,76.113609 364.798767,73.261940 
	C362.360596,73.261940 360.284912,73.261940 358.253967,73.261940 
	C358.253967,89.912865 358.253967,106.256409 358.253967,122.565910 
	C361.394073,122.565910 363.994446,122.565910 367.115875,122.565910 
	C367.115875,119.680290 367.115875,117.061081 367.115814,113.457565 
z"/>
<path fill="#072032" opacity="1.000000" stroke="none" 
	d="
M86.080360,147.721115 
	C92.729942,147.618057 99.379532,147.514984 106.576065,147.743134 
	C107.372940,147.903107 107.622871,147.731873 107.872795,147.560623 
	C121.499298,145.338989 130.313858,137.128494 134.809525,124.561317 
	C139.075745,112.635468 136.561157,101.537956 127.949265,92.178612 
	C122.091103,85.811989 114.670776,82.349174 105.910683,82.119980 
	C102.582214,82.032913 99.250206,82.081268 95.400597,81.597488 
	C92.049927,80.412895 89.188683,79.795471 86.401497,78.937477 
	C85.267754,78.588463 84.215141,77.806084 83.317963,77.005379 
	C83.143852,76.849983 83.696800,75.535812 84.192360,75.026794 
	C89.874741,69.190071 89.644966,67.912209 82.000816,64.852516 
	C82.000816,62.312057 82.000816,59.662632 82.469299,57.009399 
	C85.429245,57.004673 87.927589,57.121929 90.410660,56.977123 
	C94.950371,56.712376 99.481056,56.292645 104.015503,55.937553 
	C123.973740,54.061401 145.515778,66.953865 156.220901,87.181374 
	C176.676773,125.833176 147.645172,174.559830 103.896111,174.802628 
	C90.256783,174.878326 76.583420,174.851151 62.983170,173.976501 
	C52.643436,173.311554 43.304111,169.077957 35.764492,161.748901 
	C29.805492,155.956314 23.896206,150.054199 18.579802,143.687225 
	C16.402824,141.080063 15.141285,137.207855 14.717994,133.757217 
	C14.119493,128.878296 16.171526,124.545662 20.682581,121.986458 
	C25.190222,119.429199 29.802994,120.009033 33.839920,122.912666 
	C36.917618,125.126350 39.531914,127.992096 42.310143,130.612518 
	C46.542061,134.604095 50.461979,138.992767 55.048309,142.518234 
	C57.953552,144.751465 61.828545,145.723129 65.823051,147.800140 
	C72.945114,148.133514 79.512733,147.927307 86.080360,147.721115 
z"/>
<path fill="#072134" opacity="1.000000" stroke="none" 
	d="
M39.925991,21.802105 
	C48.488415,14.614929 58.597851,10.849991 69.531288,10.572457 
	C86.670418,10.137399 103.889450,9.869151 120.970879,11.041804 
	C135.874222,12.064928 146.614014,21.346203 154.751038,33.381348 
	C158.313934,38.651115 157.393570,44.183323 153.245911,48.442387 
	C149.226578,52.569698 142.874619,53.470055 137.710754,50.249031 
	C134.625885,48.324814 131.755875,45.990715 129.031052,43.568871 
	C123.934700,39.039227 118.140724,36.878418 111.287453,36.972378 
	C99.458397,37.134563 87.615311,37.315887 75.796555,36.927689 
	C60.142750,36.413528 50.071945,43.972298 43.150642,57.866989 
	C38.732616,59.271420 39.172825,60.994926 41.884548,62.997562 
	C41.819733,64.085800 41.754913,65.174042 41.292557,66.697166 
	C41.004269,67.754837 41.113514,68.377617 41.222763,69.000404 
	C41.424953,70.072899 41.627148,71.145401 41.650536,72.729080 
	C41.329590,73.579323 41.442478,73.827126 41.810398,73.983688 
	C41.924091,74.415398 42.037785,74.847107 41.831665,75.862709 
	C40.980385,78.967087 40.448917,81.487579 39.905514,84.064667 
	C42.884193,85.774246 45.554726,87.306976 48.225262,88.839699 
	C48.225262,88.839699 48.108192,88.908112 48.090904,89.244209 
	C49.355103,91.702950 50.153828,94.574867 52.025822,95.780998 
	C55.213879,97.835068 58.460270,99.747078 56.616608,103.817223 
	C55.060051,107.253540 51.571392,105.979736 48.657578,105.121063 
	C47.585178,104.805046 46.456944,104.678505 45.354179,104.465546 
	C44.605877,101.497292 43.403210,98.087898 41.426598,97.556328 
	C33.761326,95.494865 29.639322,88.832108 23.558439,84.802315 
	C22.717258,84.244865 22.440372,81.051987 23.183886,80.207336 
	C25.875666,77.149399 25.089512,74.559929 23.168856,71.691994 
	C20.525644,67.745140 20.639587,63.308521 22.053429,59.158039 
	C23.503620,54.900856 22.008690,52.929596 18.156427,51.860592 
	C18.156427,51.860592 18.103456,51.398483 18.655127,51.105225 
	C22.025921,49.266785 22.627209,47.016182 21.322756,44.159424 
	C21.278681,43.818130 21.383104,43.530834 22.059437,42.962967 
	C22.604055,42.248947 22.725260,41.869499 22.846464,41.490047 
	C22.846464,41.490047 22.799541,41.179096 23.140640,40.942116 
	C23.595150,40.388359 23.708559,40.071579 23.821968,39.754803 
	C23.821968,39.754803 23.863127,39.863415 24.212902,39.860332 
	C27.695421,39.175262 28.936840,37.600636 27.064493,34.556416 
	C27.064493,34.556416 27.162386,34.164169 27.653151,34.328812 
	C32.584167,37.547569 36.339695,33.972137 40.109192,32.737873 
	C41.007450,32.443752 40.730824,27.970798 40.603008,25.439684 
	C40.555386,24.496607 39.387909,23.610079 38.731075,22.697765 
	C38.731075,22.697765 38.820610,22.824461 39.032814,22.751896 
	C39.472012,22.386925 39.699001,22.094515 39.925991,21.802105 
z"/>
<path fill="#082030" opacity="1.000000" stroke="none" 
	d="
M18.009884,52.173363 
	C22.008690,52.929596 23.503620,54.900856 22.053429,59.158039 
	C20.639587,63.308521 20.525644,67.745140 23.168856,71.691994 
	C25.089512,74.559929 25.875666,77.149399 23.183886,80.207336 
	C22.440372,81.051987 22.717258,84.244865 23.558439,84.802315 
	C29.639322,88.832108 33.761326,95.494865 41.426598,97.556328 
	C43.403210,98.087898 44.605877,101.497292 45.354179,104.465546 
	C46.456944,104.678505 47.585178,104.805046 48.657578,105.121063 
	C51.571392,105.979736 55.060051,107.253540 56.616608,103.817223 
	C58.460270,99.747078 55.213879,97.835068 52.025822,95.780998 
	C50.153828,94.574867 49.355103,91.702950 48.121216,89.183563 
	C56.757530,97.116051 66.733215,101.672806 78.999695,101.057915 
	C87.304031,100.641640 95.648216,100.928329 103.972832,101.035835 
	C111.552895,101.133720 117.380180,106.377213 117.872948,113.327644 
	C118.326233,119.721222 113.101814,126.982948 106.182434,127.218155 
	C90.131905,127.763779 73.784378,129.926544 58.130817,124.845764 
	C32.258556,116.448227 11.872437,91.960457 16.044476,59.180817 
	C16.333633,56.908894 17.242607,54.715855 18.009884,52.173363 
z"/>
<path fill="#6A7988" opacity="1.000000" stroke="none" 
	d="
M236.727676,88.972176 
	C236.635666,87.917679 236.543640,86.863174 236.909637,85.397514 
	C238.502045,83.223389 240.756958,81.304413 240.537735,79.729912 
	C240.080612,76.446632 241.486542,75.548378 244.036560,74.996834 
	C244.084686,75.499611 244.132812,76.002380 243.754578,76.998665 
	C243.408615,78.184189 243.489029,78.876205 243.569427,79.568222 
	C243.999557,79.315384 244.429688,79.062538 244.859818,78.809677 
	C251.236343,69.431236 263.036194,69.306908 270.612366,78.950249 
	C275.640076,72.619080 282.310822,70.569748 289.981506,72.335243 
	C296.289673,73.787125 300.134644,78.476860 300.902954,85.051308 
	C301.114319,86.859795 301.003143,88.708405 301.004364,90.538620 
	C301.011414,101.156685 301.007812,111.774750 301.007812,122.689850 
	C297.955780,122.689850 295.238068,122.689850 291.909241,122.689850 
	C291.909241,114.052177 291.966431,105.610565 291.880707,97.170395 
	C291.847076,93.855949 291.665680,90.522614 291.242920,87.237610 
	C290.698669,83.008575 288.464355,80.217758 283.878540,79.944008 
	C278.792633,79.640404 275.318756,81.792885 274.000793,86.420265 
	C273.419434,88.461334 273.226532,90.669754 273.209167,92.805054 
	C273.129456,102.611481 273.174103,112.418915 273.174103,122.602875 
	C270.196625,122.602875 267.469269,122.602875 263.994537,122.602875 
	C263.994537,114.563271 263.995361,106.475883 263.994110,98.388496 
	C263.993683,95.725555 264.062012,93.059975 263.967590,90.400276 
	C263.821228,86.279465 263.139191,82.138565 258.776550,80.479286 
	C254.534180,78.865738 250.588364,79.900436 247.054108,83.858505 
	C246.303329,84.709396 246.141754,85.351646 245.980164,85.993896 
	C245.941757,88.035072 245.903336,90.076248 245.415039,92.552673 
	C242.219330,91.649338 239.473495,90.310760 236.727676,88.972176 
z"/>
<path fill="#687B8A" opacity="1.000000" stroke="none" 
	d="
M307.325775,108.984131 
	C308.082397,97.997948 315.188080,91.766312 327.816925,90.985168 
	C330.428619,90.823631 333.035614,90.585876 335.538910,90.391472 
	C336.798218,80.064774 330.730988,77.945015 312.398590,82.087158 
	C311.556732,79.762344 310.688660,77.365120 309.571350,74.279602 
	C319.713043,71.978699 329.371979,70.109535 339.013245,74.439606 
	C343.824158,76.600281 345.571167,81.079071 345.656830,85.925819 
	C345.871185,98.058113 345.727570,110.196747 345.727570,122.322937 
	C338.992249,123.176888 339.164246,124.962944 337.051147,116.598282 
	C331.846771,122.622261 325.499603,124.827110 317.885040,123.231483 
	C313.643707,122.342712 310.662445,120.039780 308.974182,115.328308 
	C309.115112,112.519905 312.208710,109.569336 307.325775,108.984131 
M317.154419,107.218628 
	C317.146179,114.471764 320.730286,117.197922 327.510345,115.095558 
	C334.938812,112.792137 337.739227,107.083221 335.407043,98.366119 
	C329.101318,99.368271 322.059326,98.189529 317.424957,105.384796 
	C317.330261,105.740456 317.235565,106.096123 317.154419,107.218628 
z"/>
<path fill="#118BC6" opacity="1.000000" stroke="none" 
	d="
M524.154114,117.570221 
	C523.323792,114.004356 522.187012,110.805077 522.092346,107.575256 
	C521.829773,98.619461 522.001221,89.650940 522.001221,80.625717 
	C519.250122,80.496208 516.955811,80.388206 514.278992,80.262199 
	C514.178162,78.291176 514.088501,76.538239 513.976746,74.352676 
	C516.219788,74.132141 518.285645,73.929024 520.997070,73.662445 
	C519.590210,65.834137 523.347656,60.988979 530.886780,57.712738 
	C530.886780,62.988804 530.886780,67.713264 530.886780,73.069458 
	C535.049255,73.069458 538.756287,73.069458 542.746216,73.069458 
	C542.746216,75.943512 542.746216,78.176544 542.746216,80.877686 
	C539.040588,80.877686 535.446960,80.877686 531.263184,80.877686 
	C531.263184,90.575623 530.905334,99.842232 531.402344,109.062767 
	C531.683594,114.280334 534.168701,115.557236 541.740356,116.286629 
	C541.740356,118.311272 541.740356,120.368896 541.740356,122.594833 
	C534.914062,124.261337 528.720154,124.521370 524.154114,117.570221 
z"/>
<path fill="#6B7A86" opacity="1.000000" stroke="none" 
	d="
M199.132217,78.675941 
	C200.589355,79.656662 202.046509,80.637383 203.752167,82.170464 
	C204.365463,83.338066 204.730240,83.953316 205.095032,84.568558 
	C205.395233,84.053192 205.695435,83.537819 205.995636,83.022446 
	C209.705811,84.400551 213.565002,85.477303 217.093887,87.222107 
	C223.604568,90.441216 227.996521,95.436462 227.910019,103.160721 
	C227.823090,110.922470 224.506821,117.108788 217.439041,120.512543 
	C206.319290,125.867668 195.317841,123.915024 184.347260,119.629608 
	C186.898056,112.026169 186.830643,112.330429 193.797745,113.874252 
	C197.936356,114.791321 202.371048,115.089432 206.594559,114.735199 
	C212.675110,114.225212 217.358002,109.963303 217.890656,105.120949 
	C218.507965,99.508751 214.732788,96.799004 210.324966,93.988930 
	C213.854523,85.234589 204.635010,89.778854 203.401337,86.418983 
	C201.934586,87.517052 200.467819,88.615112 199.001053,89.713173 
	C196.743149,88.395134 194.485260,87.077103 192.147873,85.098297 
	C194.423004,82.516991 196.777618,80.596466 199.132217,78.675941 
z"/>
<path fill="#687985" opacity="1.000000" stroke="none" 
	d="
M384.982635,73.199341 
	C386.031311,73.140564 387.080017,73.081795 388.846771,73.131790 
	C390.810394,73.766747 392.055939,74.292931 393.649536,74.966156 
	C394.382477,70.629204 391.906311,70.202736 389.217499,69.984436 
	C387.902679,62.805458 394.662201,61.895927 399.110718,58.424339 
	C399.110718,62.065952 399.179321,65.709335 399.085297,69.348526 
	C399.027710,71.578514 399.226379,73.392174 402.617371,73.492111 
	C404.731171,75.980820 406.373749,78.071251 408.016296,80.161690 
	C405.540741,80.401665 403.065186,80.641632 399.857117,80.952606 
	C399.123260,91.219093 398.249695,101.669380 400.767914,111.831581 
	C401.346649,114.166977 406.066711,115.476143 408.880890,117.257599 
	C409.183289,116.922272 409.485687,116.586937 409.788086,116.251610 
	C409.788086,118.199516 409.788086,120.147415 409.788086,122.081207 
	C398.627167,125.985611 390.410706,120.457214 390.131958,108.731705 
	C389.918518,99.754517 389.967865,90.771088 389.890106,81.790527 
	C389.888824,81.639076 389.758179,81.488754 389.547852,81.037369 
	C387.984406,80.772400 386.231934,80.475395 383.749451,80.054672 
	C383.749451,78.345779 383.749451,76.603226 384.062317,74.355774 
	C384.647827,73.699165 384.850342,73.481987 384.982635,73.199341 
z"/>
<path fill="#697C88" opacity="1.000000" stroke="none" 
	d="
M367.115845,113.949715 
	C367.115875,117.061081 367.115875,119.680290 367.115875,122.565910 
	C363.994446,122.565910 361.394073,122.565910 358.253967,122.565910 
	C358.253967,106.256409 358.253967,89.912865 358.253967,73.261940 
	C360.284912,73.261940 362.360596,73.261940 364.798767,73.261940 
	C364.798767,76.113609 364.798767,78.889870 364.798767,82.659439 
	C369.214203,76.780907 373.121735,71.626450 380.898621,72.448524 
	C380.898621,75.110672 380.898621,77.545670 380.898621,79.963715 
	C370.654755,83.261711 367.143036,88.103569 367.104462,98.967819 
	C367.087311,103.797653 367.110779,108.627647 367.115845,113.949715 
z"/>
<path fill="#0A1F30" opacity="1.000000" stroke="none" 
	d="
M82.000816,57.013206 
	C82.000816,59.662632 82.000816,62.312057 82.000816,64.852516 
	C89.644966,67.912209 89.874741,69.190071 84.192360,75.026794 
	C83.696800,75.535812 83.143852,76.849983 83.317963,77.005379 
	C84.215141,77.806084 85.267754,78.588463 86.401497,78.937477 
	C89.188683,79.795471 92.049927,80.412895 94.941193,81.508606 
	C88.174095,81.973495 81.345657,82.185867 74.520691,82.105110 
	C67.233849,82.018906 60.899994,75.323051 61.023449,68.132629 
	C61.136837,61.528507 66.956635,55.936436 74.098900,55.642231 
	C76.093872,55.560055 78.096695,55.668610 80.649780,56.043900 
	C81.469376,56.603157 81.735100,56.808182 82.000816,57.013206 
z"/>
<path fill="#0B88C9" opacity="1.000000" stroke="none" 
	d="
M422.170502,61.038601 
	C422.170502,59.563332 422.170502,58.088062 422.170502,56.202435 
	C436.870758,55.870415 451.729095,54.170101 461.696899,68.543442 
	C457.903992,67.661942 454.443237,66.396637 450.505432,64.956917 
	C450.319977,66.497322 450.172424,67.723335 449.679016,68.852493 
	C443.897247,64.775146 437.830688,64.491920 431.093048,65.472649 
	C431.093048,70.807159 431.043427,75.908356 431.103241,81.008270 
	C431.231140,91.915817 431.415710,102.822701 431.163757,113.675697 
	C430.166107,111.712044 429.145905,109.817909 429.077911,107.890205 
	C428.860901,101.735527 428.997437,95.568382 428.997437,88.206963 
	C426.489227,90.343201 425.201935,91.439590 422.998779,93.316010 
	C422.998779,86.309158 423.101898,80.268501 422.964355,74.233322 
	C422.864075,69.831337 422.446594,65.436577 422.170502,61.038601 
z"/>
<path fill="#6C7C87" opacity="1.000000" stroke="none" 
	d="
M199.008514,78.346077 
	C196.777618,80.596466 194.423004,82.516991 192.000214,84.804108 
	C183.114655,77.098068 185.801453,62.381546 197.250290,57.819519 
	C207.548233,53.716084 217.753922,55.413082 228.443985,59.690899 
	C226.833344,62.449093 225.466232,64.790253 224.760651,65.998581 
	C217.506210,65.638634 211.081665,64.473267 204.894104,65.234451 
	C197.710709,66.118141 195.481979,71.893394 199.008514,78.346077 
z"/>
<path fill="#0290D7" opacity="1.000000" stroke="none" 
	d="
M450.024841,68.949341 
	C450.172424,67.723335 450.319977,66.497322 450.505432,64.956917 
	C454.443237,66.396637 457.903992,67.661942 461.757141,68.878250 
	C462.149506,68.829254 462.114960,68.886024 462.167389,69.115479 
	C462.493683,69.557587 462.767517,69.770241 463.041382,69.982903 
	C463.041382,69.982903 462.998383,69.965996 463.000244,70.342041 
	C463.706635,71.787430 464.411133,72.856766 465.115601,73.926102 
	C465.115601,73.926109 465.026886,73.993271 465.023071,74.361908 
	C465.745148,76.823029 466.471069,78.915520 467.196991,81.008011 
	C467.196991,81.008011 467.311554,81.203583 467.191956,81.802811 
	C466.388641,89.605896 465.704956,96.809761 465.021271,104.013626 
	C465.021271,104.013626 465.000000,104.002281 464.643005,104.067657 
	C463.885345,105.456841 463.484680,106.780640 463.084045,108.104431 
	C463.084045,108.104439 463.022339,108.009262 462.704559,108.067535 
	C461.960114,109.127640 461.533417,110.129471 461.106750,111.131294 
	C461.106750,111.131294 461.045807,111.045372 460.834564,111.151840 
	C460.458527,111.575790 460.293732,111.893265 460.128937,112.210739 
	C460.128937,112.210747 460.117981,112.107231 459.797455,112.109482 
	C458.369324,113.476135 457.261688,114.840546 456.154083,116.204956 
	C456.154083,116.204956 456.038910,116.079018 455.734314,116.070679 
	C454.664062,116.771660 453.898438,117.480972 453.132782,118.190292 
	C453.132782,118.190285 453.078033,118.105927 452.868774,118.154449 
	C452.437347,118.461800 452.215210,118.720627 451.993073,118.979446 
	C451.993073,118.979439 451.998657,119.002342 451.565857,118.989868 
	C448.637482,119.611984 446.148438,120.691788 443.644043,120.728607 
	C441.900696,120.754242 440.136292,119.348206 438.381287,118.581734 
	C439.672485,117.396965 440.894989,116.123344 442.276611,115.055573 
	C443.380920,114.202103 444.678833,113.599144 445.904083,112.898827 
	C445.917328,112.912636 445.891754,112.909729 446.285278,112.944107 
	C447.735535,112.247795 448.792267,111.517097 449.871979,110.831177 
	C449.894958,110.875946 449.794312,110.875229 450.061157,110.817322 
	C450.537842,110.474770 450.747650,110.190140 450.967712,109.943558 
	C450.977936,109.981598 450.904083,109.954124 451.152222,109.867142 
	C451.585632,109.492928 451.770905,109.205704 451.973083,108.953720 
	C451.990051,108.988968 451.918518,108.957336 452.165466,108.859222 
	C452.581299,108.460182 452.750214,108.159264 452.929993,107.901199 
	C452.940918,107.944061 452.854919,107.923470 453.117310,107.830536 
	C453.537781,107.415565 453.695831,107.093529 453.866638,106.830765 
	C453.879333,106.890053 453.760742,106.864784 454.039124,106.776817 
	C454.385132,106.336105 454.452728,105.983360 454.526672,105.585220 
	C454.532990,105.539825 454.521240,105.448914 454.919006,105.578979 
	C455.820892,104.081352 456.324982,102.453651 456.847473,100.877899 
	C456.865906,100.929840 456.764557,100.886513 457.151886,100.757782 
	C458.028290,95.036949 458.760406,89.450378 458.887939,83.850052 
	C458.939667,81.578102 457.674500,79.276169 457.001709,76.627686 
	C456.290894,75.533905 455.586914,74.800301 454.925568,74.042267 
	C454.968231,74.017822 454.925934,74.106606 454.946899,73.726234 
	C454.209045,72.647179 453.450256,71.948486 452.766357,71.196228 
	C452.841187,71.142654 452.747070,71.300850 452.791870,70.935852 
	C451.910980,70.037338 450.985260,69.503822 450.040985,68.981567 
	C450.022430,68.992828 450.024841,68.949341 450.024841,68.949341 
z"/>
<path fill="#0391DC" opacity="1.000000" stroke="none" 
	d="
M498.987061,90.198807 
	C498.987061,90.198807 499.395996,90.006218 499.945435,89.747162 
	C500.857666,87.430931 501.220428,85.373764 501.631317,83.043762 
	C503.842499,83.043762 505.817993,83.043762 507.845764,83.357513 
	C507.902252,84.094757 507.906433,84.518250 507.644226,85.246704 
	C507.584442,90.702065 507.791016,95.852470 507.997620,101.471207 
	C507.993652,107.364777 508.086884,112.793526 507.892731,118.211967 
	C507.859192,119.147415 506.719635,120.621956 505.884308,120.784325 
	C505.077332,120.941170 503.906616,119.830391 503.081055,119.074081 
	C502.536774,118.575447 502.320587,117.718704 501.957489,117.022316 
	C501.957489,117.022316 502.003784,117.007614 501.973022,116.715981 
	C500.960724,116.282814 499.979126,116.141289 498.754883,115.846542 
	C498.013489,115.128502 497.514740,114.563675 497.010498,113.736435 
	C496.992218,113.299477 496.979431,113.124931 496.965515,112.980782 
	C496.964325,113.011169 496.920898,112.968613 497.168854,112.877411 
	C497.598480,112.494492 497.780151,112.202766 497.970612,111.947266 
	C497.979401,111.983490 497.905853,111.971298 498.181030,111.826477 
	C498.627655,111.106514 498.799072,110.531372 498.985901,109.977242 
	C499.001251,109.998253 498.954315,109.975975 499.349548,109.908813 
	C499.932617,106.254196 500.120422,102.666748 500.199402,98.844849 
	C500.041229,98.445320 499.991852,98.280235 499.688416,97.790649 
	C493.965271,97.984116 488.496216,98.502090 482.695892,98.986671 
	C481.243378,97.967812 480.122131,96.982346 478.985199,95.703117 
	C478.933685,95.216545 478.897797,95.023735 478.861908,94.830917 
	C478.861908,94.830917 478.950775,94.854439 479.304016,94.913673 
	C480.742401,94.268990 481.827545,93.565063 482.912689,92.861145 
	C482.912689,92.861153 482.998901,92.940262 483.409729,92.959396 
	C486.301819,92.985657 488.814575,93.228813 491.251495,92.903755 
	C492.536682,92.732315 493.689667,91.569618 494.902344,90.854477 
	C494.902344,90.854477 494.989532,90.963020 495.092804,90.931999 
	C495.415741,90.873154 495.611328,90.789215 495.782806,90.649162 
	C496.271301,90.483391 496.759796,90.317619 497.737976,90.335709 
	C498.227692,90.519577 498.673126,90.556877 498.673126,90.556877 
	C498.673126,90.556877 498.987061,90.198807 498.987061,90.198807 
z"/>
<path fill="#148FCD" opacity="1.000000" stroke="none" 
	d="
M445.890839,112.885025 
	C444.678833,113.599144 443.380920,114.202103 442.276611,115.055573 
	C440.894989,116.123344 439.672485,117.396965 438.381287,118.581734 
	C440.136292,119.348206 441.900696,120.754242 443.644043,120.728607 
	C446.148438,120.691788 448.637482,119.611984 451.555969,118.982697 
	C446.431885,123.184494 439.915680,122.955826 433.477509,122.991158 
	C421.931305,123.054520 421.970276,123.029915 421.994385,111.694778 
	C422.029694,95.115196 422.002258,78.535492 422.086060,61.497215 
	C422.446594,65.436577 422.864075,69.831337 422.964355,74.233322 
	C423.101898,80.268501 422.998779,86.309158 422.998779,93.316010 
	C425.201935,91.439590 426.489227,90.343201 428.997437,88.206963 
	C428.997437,95.568382 428.860901,101.735527 429.077911,107.890205 
	C429.145905,109.817909 430.166107,111.712044 431.512329,113.768852 
	C436.813049,113.572449 441.351959,113.228737 445.890839,112.885025 
z"/>
<path fill="#0693D3" opacity="1.000000" stroke="none" 
	d="
M574.011292,90.184158 
	C574.011292,90.184158 574.435364,90.027168 575.037720,89.947144 
	C577.502502,87.330795 578.497559,84.937683 574.565308,83.358238 
	C574.565308,83.358238 574.671143,83.453705 574.716187,83.054993 
	C573.817383,82.120590 572.873535,81.584908 571.929688,81.049225 
	C571.929688,81.049225 571.994812,81.000008 571.910400,80.631622 
	C570.510681,79.841805 569.211060,79.127998 567.877014,79.056641 
	C564.567200,78.879601 561.214233,79.247673 557.933716,78.890541 
	C556.237915,78.705933 554.659424,77.443451 553.027954,76.667961 
	C553.231628,76.075836 553.435303,75.483719 553.638977,74.891602 
	C561.802490,74.891602 569.966003,74.891602 578.129517,74.891602 
	C578.129517,74.891602 577.993652,74.956360 578.059326,75.266418 
	C579.102295,76.038071 580.079651,76.499664 581.057007,76.961258 
	C581.057007,76.961258 581.001038,76.999954 581.006531,77.373917 
	C581.679871,83.167648 582.347717,88.587410 583.011963,94.459648 
	C582.673096,98.275078 582.337769,101.638031 581.626099,104.995377 
	C579.550354,104.656929 577.850891,104.324089 576.114563,103.589203 
	C575.756287,101.432678 575.434937,99.678200 574.804932,97.661903 
	C572.000793,97.265800 569.505249,97.131523 566.974304,96.651810 
	C566.626709,95.202110 566.314575,94.097832 566.390320,92.947830 
	C569.189209,91.996132 571.600281,91.090149 574.011292,90.184158 
z"/>
<path fill="#757F89" opacity="1.000000" stroke="none" 
	d="
M236.569092,89.418488 
	C239.473495,90.310760 242.219330,91.649338 245.340988,92.983292 
	C245.716827,102.744843 245.716827,112.511032 245.716827,122.643127 
	C242.786972,122.643127 239.907196,122.643127 236.410507,122.643127 
	C236.410507,111.697113 236.410507,100.780952 236.569092,89.418488 
z"/>
<path fill="#0B8CC9" opacity="1.000000" stroke="none" 
	d="
M566.002441,92.993553 
	C566.314575,94.097832 566.626709,95.202110 566.623535,96.661011 
	C565.216919,97.691254 564.125610,98.366882 563.030640,99.028931 
	C563.026978,99.015350 563.041626,99.038292 562.743530,99.024963 
	C561.963257,99.311111 561.481140,99.610603 560.750183,100.098808 
	C559.385681,101.206299 558.270020,102.125061 556.874207,103.183304 
	C556.405884,103.898499 556.217773,104.474205 556.012207,105.030212 
	C555.994690,105.010506 556.047241,105.013947 555.816711,105.131531 
	C555.648621,105.823166 555.711060,106.397209 555.801270,107.377106 
	C555.800720,108.865852 555.772461,109.948753 555.557190,111.215393 
	C555.636902,111.908737 555.903625,112.418350 556.119812,112.937103 
	C556.069275,112.946259 556.077820,112.843903 556.155884,113.103424 
	C556.521973,113.565048 556.809998,113.767151 557.318909,114.031296 
	C557.842468,114.238571 558.015686,114.477608 558.110046,115.218452 
	C562.302124,116.206551 566.443542,116.786636 570.907715,117.411934 
	C568.585266,121.085144 564.983643,122.133324 560.690735,121.768929 
	C558.078186,121.547165 555.465149,121.331413 552.852295,121.112961 
	C552.852295,121.112968 552.964905,121.060463 552.933716,120.745766 
	C551.865173,119.672394 550.827820,118.913727 549.790405,118.155060 
	C549.790405,118.155052 549.881226,118.106445 549.820801,117.891434 
	C549.478577,117.462692 549.196838,117.248970 548.915100,117.035248 
	C548.915100,117.035248 548.992371,117.016937 548.989746,116.634048 
	C548.686646,113.870262 550.159058,110.678886 546.130371,110.002411 
	C546.080627,108.928375 546.030884,107.854347 546.255615,106.242645 
	C546.772949,105.451462 546.883606,105.149475 546.862061,104.799034 
	C546.862061,104.799034 546.878296,104.905273 547.226440,104.866638 
	C548.010193,103.169785 548.445862,101.511566 548.881470,99.853348 
	C548.881470,99.853340 548.910461,99.938271 549.150208,99.812576 
	C549.593994,99.126785 549.797974,98.566689 550.002014,98.006599 
	C550.002014,98.006599 550.000000,98.000000 550.227783,97.890701 
	C550.633423,97.505692 550.811401,97.229980 550.989380,96.954285 
	C551.384827,96.623085 551.780212,96.291885 552.718384,95.873070 
	C553.501648,95.508965 553.742188,95.232468 553.982727,94.955963 
	C553.982727,94.955956 553.994751,95.003830 554.375366,95.000160 
	C556.168640,94.326134 557.581299,93.655769 558.994019,92.985413 
	C558.994019,92.985413 558.975159,92.997543 559.410522,93.003403 
	C561.898071,93.004028 563.950256,92.998787 566.002441,92.993553 
z"/>
<path fill="#0E83C7" opacity="1.000000" stroke="none" 
	d="
M507.793488,83.043762 
	C505.817993,83.043762 503.842499,83.043762 501.631317,83.043762 
	C501.220428,85.373764 500.857666,87.430931 500.169739,89.719452 
	C500.099365,82.381165 497.887024,79.845558 490.404144,80.040825 
	C486.157806,80.151634 481.932007,81.048874 477.091003,81.669632 
	C476.346832,79.718010 475.431244,77.316765 474.309967,74.376106 
	C483.375610,71.637154 492.175049,70.204567 500.753876,73.719788 
	C503.710266,74.931190 505.631714,78.668388 507.968933,81.881104 
	C507.872467,82.688210 507.832977,82.865990 507.793488,83.043762 
z"/>
<path fill="#098CCC" opacity="1.000000" stroke="none" 
	d="
M497.015991,113.998848 
	C497.514740,114.563675 498.013489,115.128502 498.603394,116.149643 
	C497.497986,118.121048 496.301453,119.636147 495.104889,121.151253 
	C495.104889,121.151253 495.010681,121.052299 494.631195,121.039146 
	C488.526642,121.002533 482.801575,120.979073 477.076508,120.955612 
	C477.076508,120.955612 477.035858,121.004326 476.902466,120.748917 
	C476.469086,120.339523 476.169098,120.185547 475.869141,120.031563 
	C475.546692,119.991058 475.291840,119.838013 474.954346,119.103760 
	C474.532959,118.423019 474.261810,118.210922 473.990631,117.998825 
	C473.990631,117.998833 474.001221,117.999733 473.994324,117.698547 
	C473.632660,116.944977 473.277832,116.492584 472.923004,116.040192 
	C472.923004,116.040199 472.999359,116.009979 472.993713,115.607483 
	C472.595673,111.277390 472.203247,107.349800 471.810791,103.422211 
	C471.810791,103.422211 471.722321,103.188919 472.098450,102.921951 
	C472.967285,101.412170 473.459961,100.169350 473.952637,98.926529 
	C473.952637,98.926529 473.995056,98.986572 474.205139,98.874237 
	C474.582764,98.457726 474.750305,98.153564 474.917816,97.849396 
	C474.917816,97.849388 474.932159,97.934746 475.151733,97.849434 
	C475.557739,97.463936 475.744171,97.163750 475.930634,96.863556 
	C475.930634,96.863556 475.948090,96.947411 476.158997,96.870399 
	C476.581268,96.526497 476.792603,96.259613 477.003937,95.992722 
	C477.003937,95.992729 477.001190,96.001221 477.331421,96.010284 
	C478.108063,96.011864 478.554474,96.004379 479.000854,95.996887 
	C480.122131,96.982346 481.243378,97.967812 482.717346,99.401733 
	C483.234680,100.378433 483.399292,100.906670 483.517334,101.432419 
	C483.470764,101.429932 483.390656,101.477768 483.100281,101.429184 
	C482.622345,101.693153 482.434784,102.005699 482.224915,102.252655 
	C482.202606,102.187065 482.335022,102.227936 482.024841,102.287491 
	C481.478302,102.897629 481.241943,103.448204 481.002808,103.999603 
	C481.000000,104.000412 481.000671,104.006264 480.759308,104.149994 
	C480.386597,104.634560 480.255219,104.975380 480.125000,105.501389 
	C480.126129,105.686577 479.934753,106.003654 479.670654,106.266823 
	C479.948425,108.347107 480.490265,110.164223 481.014343,111.988525 
	C480.996613,111.995712 481.023193,111.966698 481.028870,112.281082 
	C481.417694,113.035461 481.800812,113.475449 482.132751,113.923805 
	C482.081543,113.932175 482.097565,113.829659 482.179504,114.094299 
	C482.574341,114.531006 482.887268,114.703087 483.148651,114.881378 
	C483.097107,114.887604 483.149353,114.797867 483.170776,115.204926 
	C486.576416,117.508293 489.906555,118.395271 493.205231,115.006218 
	C493.398651,114.926674 493.816437,114.905884 494.143463,114.918076 
	C494.961395,114.570976 495.452301,114.211685 495.967163,113.881119 
	C495.991150,113.909843 495.922668,113.939941 496.195251,113.968178 
	C496.650543,113.997223 496.833252,113.998032 497.015991,113.998848 
z"/>
<path fill="#1589C0" opacity="1.000000" stroke="none" 
	d="
M553.041504,121.429993 
	C555.465149,121.331413 558.078186,121.547165 560.690735,121.768929 
	C564.983643,122.133324 568.585266,121.085144 570.907715,117.411934 
	C566.443542,116.786636 562.302124,116.206551 558.502075,115.322029 
	C565.761658,117.394310 570.106934,115.660889 574.872803,109.035461 
	C574.963379,109.946915 574.994080,110.469948 575.024841,111.372101 
	C576.340576,114.055412 577.600830,116.394028 579.000366,118.646042 
	C579.524719,119.489769 580.373169,120.132072 581.073853,120.866211 
	C581.713074,119.904938 582.779907,118.995667 582.904419,117.971802 
	C583.183472,115.676903 582.993896,113.325020 582.996704,110.605095 
	C582.666382,108.476227 582.334412,106.738602 582.002441,105.000977 
	C582.337769,101.638031 582.673096,98.275078 583.307251,94.455780 
	C583.802917,93.995018 583.999817,93.990608 584.196777,93.986198 
	C584.382080,102.322563 584.567383,110.658920 584.518066,119.686554 
	C584.145630,121.183022 584.007874,121.988205 583.870117,122.793396 
	C581.754822,122.793396 579.639465,122.793396 577.154907,122.793396 
	C576.950073,120.590111 576.759094,118.536102 576.481140,115.547043 
	C569.680786,122.403336 562.578796,127.044800 553.041504,121.429993 
z"/>
<path fill="#1C91C8" opacity="1.000000" stroke="none" 
	d="
M577.931763,74.572830 
	C569.966003,74.891602 561.802490,74.891602 553.638977,74.891602 
	C553.435303,75.483719 553.231628,76.075836 553.027954,76.667961 
	C554.659424,77.443451 556.237915,78.705933 557.933716,78.890541 
	C561.214233,79.247673 564.567200,78.879601 567.877014,79.056641 
	C569.211060,79.127998 570.510681,79.841805 571.892700,80.668312 
	C565.196838,81.073395 558.434326,81.073395 551.425415,81.073395 
	C551.024170,78.788048 550.661499,76.722397 550.188660,74.029152 
	C559.416748,71.964676 568.535583,70.344933 577.931763,74.572830 
z"/>
<path fill="#082030" opacity="1.000000" stroke="none" 
	d="
M38.403831,22.787880 
	C39.387909,23.610079 40.555386,24.496607 40.603008,25.439684 
	C40.730824,27.970798 41.007450,32.443752 40.109192,32.737873 
	C36.339695,33.972137 32.584167,37.547569 27.810913,34.202438 
	C31.010801,30.233612 34.543694,26.555803 38.403831,22.787880 
z"/>
<path fill="#757F89" opacity="1.000000" stroke="none" 
	d="
M244.027512,74.570915 
	C241.486542,75.548378 240.080612,76.446632 240.537735,79.729912 
	C240.756958,81.304413 238.502045,83.223389 237.046844,85.019073 
	C236.555130,81.161072 236.384201,77.270348 236.166275,72.309914 
	C239.353348,73.054749 241.685898,73.599869 244.027512,74.570915 
z"/>
<path fill="#2090C9" opacity="1.000000" stroke="none" 
	d="
M501.943115,117.455338 
	C502.320587,117.718704 502.536774,118.575447 503.081055,119.074081 
	C503.906616,119.830391 505.077332,120.941170 505.884308,120.784325 
	C506.719635,120.621956 507.859192,119.147415 507.892731,118.211967 
	C508.086884,112.793526 507.993652,107.364777 508.211609,101.360748 
	C508.669952,100.565987 508.860992,100.310165 508.998718,100.014496 
	C508.998718,107.434433 508.998718,114.854370 508.998718,122.608337 
	C506.865601,122.608337 504.799286,122.608337 502.221832,122.608337 
	C502.125336,121.054253 502.027008,119.471313 501.943115,117.455338 
z"/>
<path fill="#6C7C87" opacity="1.000000" stroke="none" 
	d="
M199.326294,89.886154 
	C200.467819,88.615112 201.934586,87.517052 203.401337,86.418983 
	C204.635010,89.778854 213.854523,85.234589 210.112762,93.727478 
	C206.519302,92.749001 203.085403,91.404068 199.326294,89.886154 
z"/>
<path fill="#082030" opacity="1.000000" stroke="none" 
	d="
M48.204487,88.474960 
	C45.554726,87.306976 42.884193,85.774246 39.905514,84.064667 
	C40.448917,81.487579 40.980385,78.967087 41.811661,76.198532 
	C44.135551,80.003723 46.159630,84.056969 48.204487,88.474960 
z"/>
<path fill="#70818D" opacity="1.000000" stroke="none" 
	d="
M408.337921,80.275734 
	C406.373749,78.071251 404.731171,75.980820 403.037048,73.560593 
	C405.447571,73.230804 407.909668,73.230804 410.975342,73.230804 
	C409.776398,75.734436 413.799896,79.185211 408.337921,80.275734 
z"/>
<path fill="#031625" opacity="1.000000" stroke="none" 
	d="
M85.683853,147.581604 
	C79.512733,147.927307 72.945114,148.133514 66.119087,147.979309 
	C72.336243,147.559982 78.811790,147.501038 85.683853,147.581604 
z"/>
<path fill="#2090C9" opacity="1.000000" stroke="none" 
	d="
M477.321045,121.221863 
	C482.801575,120.979073 488.526642,121.002533 494.692444,121.069397 
	C489.356110,124.925804 483.488373,124.495155 477.321045,121.221863 
z"/>
<path fill="#148FCD" opacity="1.000000" stroke="none" 
	d="
M465.285095,103.753693 
	C465.704956,96.809761 466.388641,89.605896 467.124939,81.894211 
	C469.186279,88.943497 468.038208,96.268036 465.285095,103.753693 
z"/>
<path fill="#1C91C8" opacity="1.000000" stroke="none" 
	d="
M566.390320,92.947830 
	C563.950256,92.998787 561.898071,93.004028 559.405823,92.992828 
	C563.702637,92.037697 568.439575,91.099014 573.593872,90.172241 
	C571.600281,91.090149 569.189209,91.996132 566.390320,92.947830 
z"/>
<path fill="#0E83C7" opacity="1.000000" stroke="none" 
	d="
M509.077698,99.552589 
	C508.860992,100.310165 508.669952,100.565987 508.211548,100.892426 
	C507.791016,95.852470 507.584442,90.702065 507.879761,85.273056 
	C508.381683,84.994469 508.853027,85.017357 508.853027,85.017357 
	C508.954254,89.708466 509.055481,94.399574 509.077698,99.552589 
z"/>
<path fill="#031722" opacity="1.000000" stroke="none" 
	d="
M82.469299,57.009399 
	C81.735100,56.808182 81.469376,56.603157 81.094490,56.167423 
	C88.355789,55.866039 95.726257,55.795368 103.556107,55.831127 
	C99.481056,56.292645 94.950371,56.712376 90.410660,56.977123 
	C87.927589,57.121929 85.429245,57.004673 82.469299,57.009399 
z"/>
<path fill="#1C91C8" opacity="1.000000" stroke="none" 
	d="
M584.292603,93.568550 
	C583.999817,93.990608 583.802917,93.995018 583.310791,94.003296 
	C582.347717,88.587410 581.679871,83.167648 581.025330,77.345627 
	C582.093384,79.640289 583.148193,82.337189 584.139343,85.775192 
	C584.136780,86.739647 584.197815,86.963005 584.258911,87.186363 
	C584.302063,89.174545 584.345276,91.162720 584.292603,93.568550 
z"/>
<path fill="#70818D" opacity="1.000000" stroke="none" 
	d="
M389.137024,70.349747 
	C391.906311,70.202736 394.382477,70.629204 393.649536,74.966156 
	C392.055939,74.292931 390.810394,73.766747 389.240051,73.097672 
	C388.962311,72.208214 389.009399,71.461639 389.137024,70.349747 
z"/>
<path fill="#098CCC" opacity="1.000000" stroke="none" 
	d="
M494.475677,90.796982 
	C493.689667,91.569618 492.536682,92.732315 491.251495,92.903755 
	C488.814575,93.228813 486.301819,92.985657 483.353210,92.944351 
	C486.606903,92.186607 490.327942,91.463051 494.475677,90.796982 
z"/>
<path fill="#2090C9" opacity="1.000000" stroke="none" 
	d="
M495.447205,121.102570 
	C496.301453,119.636147 497.497986,118.121048 498.846069,116.302856 
	C499.979126,116.141289 500.960724,116.282814 501.954376,116.732605 
	C499.907501,118.378532 497.848511,119.716209 495.447205,121.102570 
z"/>
<path fill="#082030" opacity="1.000000" stroke="none" 
	d="
M26.814095,34.729507 
	C28.936840,37.600636 27.695421,39.175262 24.159016,39.838684 
	C24.691465,38.180946 25.627581,36.541775 26.814095,34.729507 
z"/>
<path fill="#082030" opacity="1.000000" stroke="none" 
	d="
M42.028702,62.662651 
	C39.172825,60.994926 38.732616,59.271420 42.889122,58.085224 
	C42.915897,59.513660 42.544376,60.920700 42.028702,62.662651 
z"/>
<path fill="#258DBC" opacity="1.000000" stroke="none" 
	d="
M471.508423,103.758293 
	C472.203247,107.349800 472.595673,111.277390 472.964386,115.636246 
	C472.362488,112.076469 471.784271,108.085426 471.508423,103.758293 
z"/>
<path fill="#6E7F8D" opacity="1.000000" stroke="none" 
	d="
M307.245636,109.352615 
	C312.208710,109.569336 309.115112,112.519905 308.920288,114.993683 
	C308.289978,113.504814 307.727753,111.612953 307.245636,109.352615 
z"/>
<path fill="#1C91C8" opacity="1.000000" stroke="none" 
	d="
M574.683105,83.763123 
	C578.497559,84.937683 577.502502,87.330795 575.261475,89.914352 
	C574.855469,88.030388 574.828186,86.099205 574.683105,83.763123 
z"/>
<path fill="#1589C0" opacity="1.000000" stroke="none" 
	d="
M546.063904,110.363632 
	C550.159058,110.678886 548.686646,113.870262 548.966187,116.665985 
	C547.962646,114.962166 546.980042,112.843506 546.063904,110.363632 
z"/>
<path fill="#082030" opacity="1.000000" stroke="none" 
	d="
M21.110994,44.454971 
	C22.627209,47.016182 22.025921,49.266785 18.800121,50.923386 
	C19.228708,48.940044 20.063971,46.845280 21.110994,44.454971 
z"/>
<path fill="#148FCD" opacity="1.000000" stroke="none" 
	d="
M467.204346,80.615532 
	C466.471069,78.915520 465.745148,76.823029 465.050903,74.313744 
	C465.792297,76.005653 466.501984,78.114357 467.204346,80.615532 
z"/>
<path fill="#148FCD" opacity="1.000000" stroke="none" 
	d="
M456.474060,116.126297 
	C457.261688,114.840546 458.369324,113.476135 459.842560,112.135483 
	C459.070129,113.455368 457.932098,114.751495 456.474060,116.126297 
z"/>
<path fill="#1589C0" opacity="1.000000" stroke="none" 
	d="
M548.575439,100.029800 
	C548.445862,101.511566 548.010193,103.169785 547.180542,104.838684 
	C547.280823,103.301666 547.775146,101.753960 548.575439,100.029800 
z"/>
<path fill="#1589C0" opacity="1.000000" stroke="none" 
	d="
M549.879333,118.465027 
	C550.827820,118.913727 551.865173,119.672394 552.897339,120.796074 
	C551.917419,120.365723 550.942871,119.570358 549.879333,118.465027 
z"/>
<path fill="#1589C0" opacity="1.000000" stroke="none" 
	d="
M558.638977,92.969971 
	C557.581299,93.655769 556.168640,94.326134 554.356689,94.983826 
	C555.399658,94.298958 556.841797,93.626755 558.638977,92.969971 
z"/>
<path fill="#148FCD" opacity="1.000000" stroke="none" 
	d="
M463.369934,107.927910 
	C463.484680,106.780640 463.885345,105.456841 464.652405,104.077011 
	C464.564453,105.264450 464.110138,106.507919 463.369934,107.927910 
z"/>
<path fill="#098CCC" opacity="1.000000" stroke="none" 
	d="
M482.581787,92.915970 
	C481.827545,93.565063 480.742401,94.268990 479.264282,94.936783 
	C479.997803,94.257370 481.124329,93.614090 482.581787,92.915970 
z"/>
<path fill="#148FCD" opacity="1.000000" stroke="none" 
	d="
M465.091431,73.592072 
	C464.411133,72.856766 463.706635,71.787430 463.021637,70.333084 
	C463.716492,71.051407 464.391846,72.154724 465.091431,73.592072 
z"/>
<path fill="#757F89" opacity="1.000000" stroke="none" 
	d="
M244.817413,78.440536 
	C244.429688,79.062538 243.999557,79.315384 243.569427,79.568222 
	C243.489029,78.876205 243.408615,78.184189 243.531647,77.312920 
	C244.081726,77.446243 244.428360,77.758812 244.817413,78.440536 
z"/>
<path fill="#6C7C87" opacity="1.000000" stroke="none" 
	d="
M205.805725,82.797272 
	C205.695435,83.537819 205.395233,84.053192 205.095032,84.568558 
	C204.730240,83.953316 204.365463,83.338066 203.989990,82.394066 
	C204.524811,82.234238 205.070297,82.403168 205.805725,82.797272 
z"/>
<path fill="#258DBC" opacity="1.000000" stroke="none" 
	d="
M473.652313,99.093102 
	C473.459961,100.169350 472.967285,101.412170 472.186646,102.833710 
	C472.383118,101.761513 472.867554,100.510597 473.652313,99.093102 
z"/>
<path fill="#1C91C8" opacity="1.000000" stroke="none" 
	d="
M580.941833,76.660355 
	C580.079651,76.499664 579.102295,76.038071 578.112671,75.213333 
	C579.009216,75.353287 579.917908,75.856377 580.941833,76.660355 
z"/>
<path fill="#148FCD" opacity="1.000000" stroke="none" 
	d="
M461.402191,111.003540 
	C461.533417,110.129471 461.960114,109.127640 462.750854,108.100304 
	C462.642487,109.008453 462.170074,109.942116 461.402191,111.003540 
z"/>
<path fill="#1C91C8" opacity="1.000000" stroke="none" 
	d="
M572.062744,81.320213 
	C572.873535,81.584908 573.817383,82.120590 574.649414,83.027618 
	C573.757019,82.796379 572.976379,82.193787 572.062744,81.320213 
z"/>
<path fill="#148FCD" opacity="1.000000" stroke="none" 
	d="
M453.454529,118.163948 
	C453.898438,117.480972 454.664062,116.771660 455.808960,116.112000 
	C455.384216,116.820305 454.580231,117.478958 453.454529,118.163948 
z"/>
<path fill="#757F89" opacity="1.000000" stroke="none" 
	d="
M246.210358,85.812805 
	C246.141754,85.351646 246.303329,84.709396 246.760376,84.043579 
	C246.850754,84.557251 246.645645,85.094482 246.210358,85.812805 
z"/>
<path fill="#082030" opacity="1.000000" stroke="none" 
	d="
M41.366764,68.681297 
	C41.113514,68.377617 41.004269,67.754837 41.110512,67.065437 
	C41.387589,67.453278 41.449177,67.907738 41.366764,68.681297 
z"/>
<path fill="#2090C9" opacity="1.000000" stroke="none" 
	d="
M508.918304,84.690559 
	C508.853027,85.017357 508.381683,84.994469 508.146149,84.968109 
	C507.906433,84.518250 507.902252,84.094757 507.845764,83.357513 
	C507.832977,82.865990 507.872467,82.688210 507.961670,82.241814 
	C508.335480,82.770050 508.659515,83.566902 508.918304,84.690559 
z"/>
<path fill="#73B8D3" opacity="1.000000" stroke="none" 
	d="
M584.214966,122.709503 
	C584.007874,121.988205 584.145630,121.183022 584.486572,120.148476 
	C584.646423,120.821289 584.603088,121.723457 584.214966,122.709503 
z"/>
<path fill="#258DBC" opacity="1.000000" stroke="none" 
	d="
M472.932281,116.343628 
	C473.277832,116.492584 473.632660,116.944977 473.992950,117.704071 
	C473.646149,117.556198 473.293854,117.101631 472.932281,116.343628 
z"/>
<path fill="#1589C0" opacity="1.000000" stroke="none" 
	d="
M549.754700,98.168198 
	C549.797974,98.566689 549.593994,99.126785 549.105469,99.809280 
	C549.049805,99.397720 549.278564,98.863754 549.754700,98.168198 
z"/>
<path fill="#258DBC" opacity="1.000000" stroke="none" 
	d="
M478.985199,95.703125 
	C478.554474,96.004379 478.108063,96.011864 477.326843,96.009666 
	C477.421783,95.636124 477.851593,95.272270 478.571655,94.869667 
	C478.897797,95.023735 478.933685,95.216545 478.985199,95.703125 
z"/>
<path fill="#258DBC" opacity="1.000000" stroke="none" 
	d="
M475.962799,120.292946 
	C476.169098,120.185547 476.469086,120.339523 476.896393,120.717773 
	C476.701324,120.812805 476.378876,120.683563 475.962799,120.292946 
z"/>
<path fill="#031625" opacity="1.000000" stroke="none" 
	d="
M107.624840,147.488434 
	C107.622871,147.731873 107.372940,147.903107 107.024887,147.871948 
	C107.076805,147.585129 107.226845,147.500687 107.624840,147.488434 
z"/>
<path fill="#258DBC" opacity="1.000000" stroke="none" 
	d="
M474.039520,118.266647 
	C474.261810,118.210922 474.532959,118.423019 474.879395,118.888069 
	C474.665955,118.938843 474.377167,118.736664 474.039520,118.266647 
z"/>
<path fill="#148FCD" opacity="1.000000" stroke="none" 
	d="
M452.261475,118.947914 
	C452.215210,118.720627 452.437347,118.461800 452.918945,118.157654 
	C452.962250,118.380341 452.746063,118.648361 452.261475,118.947914 
z"/>
<path fill="#1589C0" opacity="1.000000" stroke="none" 
	d="
M548.962830,117.309875 
	C549.196838,117.248970 549.478577,117.462692 549.822327,117.942902 
	C549.593079,118.001091 549.301819,117.792793 548.962830,117.309875 
z"/>
<path fill="#258DBC" opacity="1.000000" stroke="none" 
	d="
M475.670288,96.942757 
	C475.744171,97.163750 475.557739,97.463936 475.109070,97.842010 
	C475.034576,97.620583 475.222260,97.321266 475.670288,96.942757 
z"/>
<path fill="#082030" opacity="1.000000" stroke="none" 
	d="
M39.658329,21.883545 
	C39.699001,22.094515 39.472012,22.386925 38.961205,22.722088 
	C38.915142,22.498222 39.152905,22.231604 39.658329,21.883545 
z"/>
<path fill="#082030" opacity="1.000000" stroke="none" 
	d="
M23.572952,39.865780 
	C23.708559,40.071579 23.595150,40.388359 23.267982,40.849884 
	C23.144131,40.655342 23.234035,40.316051 23.572952,39.865780 
z"/>
<path fill="#082030" opacity="1.000000" stroke="none" 
	d="
M22.578384,41.653671 
	C22.725260,41.869499 22.604055,42.248947 22.242802,42.814262 
	C22.105272,42.605846 22.207788,42.211571 22.578384,41.653671 
z"/>
<path fill="#0B88C9" opacity="1.000000" stroke="none" 
	d="
M462.993835,69.713089 
	C462.767517,69.770241 462.493683,69.557587 462.153809,69.085480 
	C462.373993,69.031784 462.660156,69.237534 462.993835,69.713089 
z"/>
<path fill="#082030" opacity="1.000000" stroke="none" 
	d="
M41.859528,73.740265 
	C41.442478,73.827126 41.329590,73.579323 41.596985,73.138367 
	C41.722240,73.036469 41.908653,73.496834 41.859528,73.740265 
z"/>
<path fill="#70818D" opacity="1.000000" stroke="none" 
	d="
M384.712128,73.175797 
	C384.850342,73.481987 384.647827,73.699165 384.162476,73.927216 
	C384.113708,73.719780 384.277649,73.436020 384.712128,73.175797 
z"/>
<path fill="#73B8D3" opacity="1.000000" stroke="none" 
	d="
M584.393555,87.039001 
	C584.197815,86.963005 584.136780,86.739647 584.144287,86.175804 
	C584.317993,86.187431 584.423096,86.539543 584.393555,87.039001 
z"/>
<path fill="#098CCC" opacity="1.000000" stroke="none" 
	d="
M495.615723,90.560448 
	C495.611328,90.789215 495.415741,90.873154 495.032684,90.896912 
	C494.962494,90.614738 495.155640,90.474373 495.615723,90.560448 
z"/>
<path fill="#098CCC" opacity="1.000000" stroke="none" 
	d="
M498.742981,90.142052 
	C498.987061,90.198807 498.673126,90.556877 498.673126,90.556877 
	C498.673126,90.556877 498.227692,90.519577 498.128296,90.389481 
	C498.185577,90.201363 498.342255,90.143333 498.742981,90.142052 
z"/>
<path fill="#1589C0" opacity="1.000000" stroke="none" 
	d="
M553.700928,95.003052 
	C553.742188,95.232468 553.501648,95.508965 552.985596,95.845688 
	C552.946533,95.620659 553.182861,95.335396 553.700928,95.003052 
z"/>
<path fill="#258DBC" opacity="1.000000" stroke="none" 
	d="
M476.736633,96.034073 
	C476.792603,96.259613 476.581268,96.526497 476.117249,96.861031 
	C476.066132,96.644257 476.267731,96.359848 476.736633,96.034073 
z"/>
<path fill="#148FCD" opacity="1.000000" stroke="none" 
	d="
M460.386566,112.116058 
	C460.293732,111.893265 460.458527,111.575790 460.885193,111.166306 
	C460.979462,111.389992 460.811829,111.705681 460.386566,112.116058 
z"/>
<path fill="#1589C0" opacity="1.000000" stroke="none" 
	d="
M550.725281,97.012962 
	C550.811401,97.229980 550.633423,97.505692 550.230408,97.890778 
	C550.157288,97.690651 550.309204,97.381149 550.725281,97.012962 
z"/>
<path fill="#258DBC" opacity="1.000000" stroke="none" 
	d="
M474.654724,97.932358 
	C474.750305,98.153564 474.582764,98.457726 474.169189,98.866638 
	C474.079315,98.652702 474.235474,98.334015 474.654724,97.932358 
z"/>
<path fill="#1589C0" opacity="1.000000" stroke="none" 
	d="
M546.611694,104.900162 
	C546.883606,105.149475 546.772949,105.451462 546.326782,105.844498 
	C546.202698,105.656441 546.282043,105.328865 546.611694,104.900162 
z"/>
<path fill="#FAFCFC" opacity="1.000000" stroke="none" 
	d="
M317.851776,105.023392 
	C322.059326,98.189529 329.101318,99.368271 335.407043,98.366119 
	C337.739227,107.083221 334.938812,112.792137 327.510345,115.095558 
	C320.730286,117.197922 317.146179,114.471764 317.378784,106.663567 
	C317.686035,105.746803 317.768921,105.385094 317.851776,105.023392 
z"/>
<path fill="#6E7F8D" opacity="1.000000" stroke="none" 
	d="
M317.638367,105.204094 
	C317.768921,105.385094 317.686035,105.746803 317.372009,106.280151 
	C317.235565,106.096123 317.330261,105.740456 317.638367,105.204094 
z"/>
<path fill="#F7FEFF" opacity="1.000000" stroke="none" 
	d="
M445.904083,112.898834 
	C441.351959,113.228737 436.813049,113.572449 431.925598,113.823006 
	C431.415710,102.822701 431.231140,91.915817 431.103241,81.008270 
	C431.043427,75.908356 431.093048,70.807159 431.093048,65.472649 
	C437.830688,64.491920 443.897247,64.775146 449.679016,68.852493 
	C450.024841,68.949341 450.022430,68.992828 450.192200,69.244598 
	C451.157013,70.097862 451.952026,70.699364 452.747070,71.300858 
	C452.747070,71.300850 452.841187,71.142654 452.849884,71.494720 
	C453.547699,72.600052 454.236816,73.353325 454.925964,74.106598 
	C454.925934,74.106606 454.968231,74.017822 454.947601,74.370667 
	C455.336487,75.479652 455.745972,76.235802 456.155396,77.381241 
	C459.162994,85.401932 458.001465,93.143227 456.764557,100.886513 
	C456.764557,100.886513 456.865906,100.929840 456.585327,101.087280 
	C455.710236,102.646126 455.115753,104.047523 454.521240,105.448914 
	C454.521240,105.448914 454.532990,105.539825 454.307739,105.717033 
	C453.975220,106.217758 453.867981,106.541267 453.760742,106.864777 
	C453.760742,106.864784 453.879333,106.890053 453.605255,106.923096 
	C453.172424,107.278580 453.013672,107.601021 452.854919,107.923470 
	C452.854919,107.923470 452.940918,107.944061 452.672974,107.986008 
	C452.242859,108.337753 452.080688,108.647545 451.918518,108.957336 
	C451.918518,108.957336 451.990051,108.988968 451.718201,109.030724 
	C451.265625,109.366364 451.084869,109.660248 450.904114,109.954132 
	C450.904083,109.954124 450.977936,109.981598 450.699554,110.003433 
	C450.212219,110.308594 450.003265,110.591911 449.794312,110.875229 
	C449.794312,110.875229 449.894958,110.875946 449.545837,110.887482 
	C448.095062,111.569260 446.993408,112.239502 445.891754,112.909737 
	C445.891754,112.909729 445.917328,112.912636 445.904083,112.898834 
z"/>
<path fill="#148FCD" opacity="1.000000" stroke="none" 
	d="
M457.151886,100.757782 
	C458.001465,93.143227 459.162994,85.401932 456.368652,77.380478 
	C456.582031,76.990440 457.008545,76.987869 457.008545,76.987869 
	C457.674500,79.276169 458.939667,81.578102 458.887939,83.850052 
	C458.760406,89.450378 458.028290,95.036949 457.151886,100.757782 
z"/>
<path fill="#148FCD" opacity="1.000000" stroke="none" 
	d="
M454.919006,105.578987 
	C455.115753,104.047523 455.710236,102.646126 456.566895,101.035339 
	C456.324982,102.453651 455.820892,104.081352 454.919006,105.578987 
z"/>
<path fill="#148FCD" opacity="1.000000" stroke="none" 
	d="
M446.285278,112.944122 
	C446.993408,112.239502 448.095062,111.569260 449.522827,110.842712 
	C448.792267,111.517097 447.735535,112.247795 446.285278,112.944122 
z"/>
<path fill="#0B88C9" opacity="1.000000" stroke="none" 
	d="
M457.001709,76.627686 
	C457.008545,76.987869 456.582031,76.990440 456.368774,76.991196 
	C455.745972,76.235802 455.336487,75.479652 454.904938,74.395103 
	C455.586914,74.800301 456.290894,75.533905 457.001709,76.627686 
z"/>
<path fill="#0B88C9" opacity="1.000000" stroke="none" 
	d="
M454.946899,73.726227 
	C454.236816,73.353325 453.547699,72.600052 452.775024,71.548294 
	C453.450256,71.948486 454.209045,72.647179 454.946899,73.726227 
z"/>
<path fill="#0B88C9" opacity="1.000000" stroke="none" 
	d="
M452.791870,70.935852 
	C451.952026,70.699364 451.157013,70.097862 450.210754,69.233337 
	C450.985260,69.503822 451.910980,70.037338 452.791870,70.935852 
z"/>
<path fill="#148FCD" opacity="1.000000" stroke="none" 
	d="
M454.039124,106.776810 
	C453.867981,106.541267 453.975220,106.217758 454.301392,105.762428 
	C454.452728,105.983360 454.385132,106.336105 454.039124,106.776810 
z"/>
<path fill="#148FCD" opacity="1.000000" stroke="none" 
	d="
M453.117310,107.830536 
	C453.013672,107.601021 453.172424,107.278580 453.592529,106.863808 
	C453.695831,107.093529 453.537781,107.415565 453.117310,107.830536 
z"/>
<path fill="#148FCD" opacity="1.000000" stroke="none" 
	d="
M452.165466,108.859222 
	C452.080688,108.647545 452.242859,108.337753 452.662048,107.943153 
	C452.750214,108.159264 452.581299,108.460182 452.165466,108.859222 
z"/>
<path fill="#148FCD" opacity="1.000000" stroke="none" 
	d="
M451.152252,109.867142 
	C451.084869,109.660248 451.265625,109.366364 451.701263,108.995483 
	C451.770905,109.205704 451.585632,109.492928 451.152252,109.867142 
z"/>
<path fill="#148FCD" opacity="1.000000" stroke="none" 
	d="
M450.061157,110.817322 
	C450.003265,110.591911 450.212219,110.308594 450.689331,109.965393 
	C450.747650,110.190140 450.537842,110.474770 450.061157,110.817322 
z"/>
<path fill="#F4FDFF" opacity="1.000000" stroke="none" 
	d="
M479.934753,106.003647 
	C479.934753,106.003654 480.126129,105.686577 480.367126,105.358643 
	C480.739014,104.689224 480.869843,104.347748 481.000671,104.006264 
	C481.000671,104.006264 481.000000,104.000412 481.260498,103.865234 
	C481.792328,103.229355 482.063660,102.728645 482.335022,102.227936 
	C482.335022,102.227936 482.202606,102.187065 482.470764,102.196091 
	C482.956146,101.962669 483.173401,101.720215 483.390656,101.477768 
	C483.390656,101.477768 483.470764,101.429932 483.845520,101.308647 
	C489.461029,100.163292 494.701752,99.139214 499.942474,98.115143 
	C499.991852,98.280235 500.041229,98.445320 500.104736,99.273346 
	C499.730682,103.282852 499.342499,106.629410 498.954315,109.975975 
	C498.954315,109.975975 499.001251,109.998253 498.709351,110.112450 
	C498.246948,110.808197 498.076416,111.389748 497.905853,111.971298 
	C497.905853,111.971298 497.979401,111.983490 497.714722,112.028275 
	C497.273651,112.371574 497.097260,112.670090 496.920898,112.968613 
	C496.920898,112.968613 496.964325,113.011169 496.703796,113.034607 
	C496.269745,113.352020 496.096222,113.645981 495.922668,113.939941 
	C495.922668,113.939941 495.991150,113.909843 495.651917,113.914726 
	C494.813965,114.248367 494.315186,114.577126 493.816437,114.905884 
	C493.816437,114.905884 493.398651,114.926674 492.810120,114.966293 
	C489.197510,114.936569 486.173431,114.867218 483.149353,114.797867 
	C483.149353,114.797867 483.097107,114.887604 483.061340,114.621880 
	C482.716248,114.180656 482.406891,114.005165 482.097565,113.829666 
	C482.097565,113.829659 482.081543,113.932175 482.078369,113.631783 
	C481.724518,112.876503 481.373840,112.421608 481.023193,111.966705 
	C481.023193,111.966698 480.996613,111.995712 480.984863,111.608322 
	C480.626984,109.481842 480.280884,107.742744 479.934753,106.003647 
z"/>
<path fill="#2090C9" opacity="1.000000" stroke="none" 
	d="
M499.688416,97.790649 
	C494.701752,99.139214 489.461029,100.163292 483.892090,101.311142 
	C483.399292,100.906670 483.234680,100.378433 483.048615,99.435120 
	C488.496216,98.502090 493.965271,97.984116 499.688416,97.790649 
z"/>
<path fill="#2090C9" opacity="1.000000" stroke="none" 
	d="
M499.349548,109.908813 
	C499.342499,106.629410 499.730682,103.282852 500.213562,99.507790 
	C500.120422,102.666748 499.932617,106.254196 499.349548,109.908813 
z"/>
<path fill="#2090C9" opacity="1.000000" stroke="none" 
	d="
M498.181030,111.826477 
	C498.076416,111.389748 498.246948,110.808197 498.694000,110.091438 
	C498.799072,110.531372 498.627655,111.106514 498.181030,111.826477 
z"/>
<path fill="#2090C9" opacity="1.000000" stroke="none" 
	d="
M496.195251,113.968185 
	C496.096222,113.645981 496.269745,113.352020 496.704956,113.004227 
	C496.979431,113.124931 496.992218,113.299477 497.010498,113.736435 
	C496.833252,113.998032 496.650543,113.997223 496.195251,113.968185 
z"/>
<path fill="#2090C9" opacity="1.000000" stroke="none" 
	d="
M497.168823,112.877411 
	C497.097260,112.670090 497.273651,112.371574 497.705933,111.992058 
	C497.780151,112.202766 497.598480,112.494492 497.168823,112.877411 
z"/>
<path fill="#068FCB" opacity="1.000000" stroke="none" 
	d="
M581.626099,104.995377 
	C582.334412,106.738602 582.666382,108.476227 582.553711,110.606506 
	C579.747620,110.997108 577.386169,110.995049 575.024719,110.992989 
	C574.994080,110.469948 574.963379,109.946915 574.872498,108.858719 
	C574.812256,108.293571 575.023071,108.009781 575.298523,107.778236 
	C575.766479,106.361549 575.958984,105.176399 576.151489,103.991249 
	C577.850891,104.324089 579.550354,104.656929 581.626099,104.995377 
z"/>
<path fill="#2A91C0" opacity="1.000000" stroke="none" 
	d="
M563.034363,99.042496 
	C564.125610,98.366882 565.216919,97.691254 566.658936,97.006432 
	C569.505249,97.131523 572.000793,97.265800 574.738403,97.716232 
	C574.980530,98.032379 574.855347,98.147621 574.418823,98.126389 
	C570.333008,98.417595 566.683655,98.730042 563.034363,99.042496 
z"/>
<path fill="#2A91C0" opacity="1.000000" stroke="none" 
	d="
M576.114563,103.589203 
	C575.958984,105.176399 575.766479,106.361549 575.264954,107.327499 
	C574.922363,104.121407 574.888855,101.134514 574.855347,98.147621 
	C574.855347,98.147621 574.980530,98.032379 575.047058,97.978058 
	C575.434937,99.678200 575.756287,101.432678 576.114563,103.589203 
z"/>
<path fill="#F4FEFE" opacity="1.000000" stroke="none" 
	d="
M574.418823,98.126389 
	C574.888855,101.134514 574.922363,104.121407 574.989502,107.559036 
	C575.023071,108.009781 574.812256,108.293571 574.812561,108.470306 
	C570.106934,115.660889 565.761658,117.394310 558.451416,114.914017 
	C558.015686,114.477608 557.842468,114.238571 557.236694,113.772980 
	C556.648315,113.249718 556.363037,113.046822 556.077820,112.843918 
	C556.077820,112.843903 556.069275,112.946259 556.090271,112.612213 
	C555.988892,111.862663 555.866577,111.447159 555.744202,111.031654 
	C555.772461,109.948753 555.800720,108.865852 555.920044,107.064629 
	C556.023132,105.902184 556.035156,105.458069 556.047241,105.013947 
	C556.047241,105.013947 555.994690,105.010506 556.250916,104.850769 
	C556.722900,104.141983 556.938660,103.592926 557.154419,103.043846 
	C558.270020,102.125061 559.385681,101.206299 561.045166,100.116989 
	C562.073181,99.643730 562.557373,99.341003 563.041626,99.038284 
	C563.041626,99.038292 563.026978,99.015350 563.030640,99.028915 
	C566.683655,98.730042 570.333008,98.417595 574.418823,98.126389 
z"/>
<path fill="#1589C0" opacity="1.000000" stroke="none" 
	d="
M555.816650,105.131531 
	C556.035156,105.458069 556.023132,105.902184 555.892334,106.658783 
	C555.711060,106.397209 555.648621,105.823166 555.816650,105.131531 
z"/>
<path fill="#1589C0" opacity="1.000000" stroke="none" 
	d="
M555.557190,111.215393 
	C555.866577,111.447159 555.988892,111.862663 556.140808,112.603065 
	C555.903625,112.418350 555.636902,111.908737 555.557190,111.215393 
z"/>
<path fill="#1589C0" opacity="1.000000" stroke="none" 
	d="
M556.874268,103.183319 
	C556.938660,103.592926 556.722900,104.141983 556.268433,104.870483 
	C556.217773,104.474205 556.405884,103.898499 556.874268,103.183319 
z"/>
<path fill="#2A91C0" opacity="1.000000" stroke="none" 
	d="
M562.743530,99.024948 
	C562.557373,99.341003 562.073181,99.643730 561.294006,99.928268 
	C561.481140,99.610603 561.963257,99.311111 562.743530,99.024948 
z"/>
<path fill="#1589C0" opacity="1.000000" stroke="none" 
	d="
M556.155884,113.103439 
	C556.363037,113.046822 556.648315,113.249718 557.015747,113.710938 
	C556.809998,113.767151 556.521973,113.565048 556.155884,113.103439 
z"/>
<path fill="#2090C9" opacity="1.000000" stroke="none" 
	d="
M483.170776,115.204926 
	C486.173431,114.867218 489.197510,114.936569 492.616699,115.045837 
	C489.906555,118.395271 486.576416,117.508293 483.170776,115.204926 
z"/>
<path fill="#2090C9" opacity="1.000000" stroke="none" 
	d="
M479.670654,106.266815 
	C480.280884,107.742744 480.626984,109.481842 481.002594,111.601135 
	C480.490265,110.164223 479.948425,108.347107 479.670654,106.266815 
z"/>
<path fill="#2090C9" opacity="1.000000" stroke="none" 
	d="
M481.028870,112.281097 
	C481.373840,112.421608 481.724518,112.876503 482.129578,113.623413 
	C481.800812,113.475449 481.417694,113.035461 481.028870,112.281097 
z"/>
<path fill="#2090C9" opacity="1.000000" stroke="none" 
	d="
M494.143463,114.918083 
	C494.315186,114.577126 494.813965,114.248367 495.627930,113.886002 
	C495.452301,114.211685 494.961395,114.570976 494.143463,114.918083 
z"/>
<path fill="#2090C9" opacity="1.000000" stroke="none" 
	d="
M482.024841,102.287491 
	C482.063660,102.728645 481.792328,103.229355 481.263275,103.864426 
	C481.241943,103.448204 481.478302,102.897629 482.024841,102.287491 
z"/>
<path fill="#2090C9" opacity="1.000000" stroke="none" 
	d="
M482.179504,114.094299 
	C482.406891,114.005165 482.716248,114.180656 483.112885,114.615662 
	C482.887268,114.703087 482.574341,114.531006 482.179504,114.094299 
z"/>
<path fill="#2090C9" opacity="1.000000" stroke="none" 
	d="
M483.100281,101.429184 
	C483.173401,101.720215 482.956146,101.962669 482.493103,102.261681 
	C482.434784,102.005699 482.622345,101.693153 483.100281,101.429184 
z"/>
<path fill="#2090C9" opacity="1.000000" stroke="none" 
	d="
M480.759308,104.149994 
	C480.869843,104.347748 480.739014,104.689224 480.365997,105.173454 
	C480.255219,104.975380 480.386597,104.634560 480.759308,104.149994 
z"/>
<path fill="#038DC5" opacity="1.000000" stroke="none" 
	d="
M575.024841,111.372101 
	C577.386169,110.995049 579.747620,110.997108 582.552124,110.997757 
	C582.993896,113.325020 583.183472,115.676903 582.904419,117.971802 
	C582.779907,118.995667 581.713074,119.904938 581.073853,120.866211 
	C580.373169,120.132072 579.524719,119.489769 579.000366,118.646042 
	C577.600830,116.394028 576.340576,114.055412 575.024841,111.372101 
z"/>
</svg>